<svg width="27" height="18" fill="none" xmlns="http://www.w3.org/2000/svg"><g clip-path="url(#clip0_1143_914)"><path d="M26.5 0H.5v17.319h26V0z" fill="#EE1C25"/><path d="M4.833 1.732l1.528 4.7-4-2.905h4.945L3.305 6.43l1.528-4.7zM9.506.935l-.145 1.64-.848-1.412 1.517.645-1.607.37L9.506.934zm2.016 1.925l-.77 1.457-.234-1.63 1.148 1.181-1.624-.282 1.48-.725zm.192 2.905L10.416 6.78l.453-1.584.565 1.548-1.367-.92 1.647-.06zM9.472 6.983L9.396 8.63 8.49 7.253l1.542.58-1.59.437 1.03-1.287z" fill="#FF0"/></g><defs><clipPath id="clip0_1143_914"><path fill="#fff" transform="translate(.5)" d="M0 0h26v17.319H0z"/></clipPath></defs></svg>