<svg width="31" height="17" fill="none" xmlns="http://www.w3.org/2000/svg"><path d="M30.53 0H.47v17h30.06V0z" fill="#fff"/><path d="M30.53 0H.47v1.308h30.06V0zm0 2.615H.47v1.308h30.06V2.615zm0 2.616H.47v1.308h30.06V5.23zm0 2.615H.47v1.308h30.06V7.846zm0 2.615H.47v1.308h30.06v-1.308zm0 2.616H.47v1.308h30.06v-1.308zm0 2.615H.47V17h30.06v-1.308z" fill="#BB133E"/><path d="M12.494 0H.47v9.154h12.024V0z" fill="#002664"/><path d="M1.5 1l.112.345h.364l-.294.214.112.346L1.5 1.69l-.294.214.112-.346-.294-.214h.364L1.5 1zm0 2l.112.345h.364l-.294.214.112.346L1.5 3.69l-.294.214.112-.346-.294-.214h.364L1.5 3zm0 2l.112.345h.364l-.294.214.112.346L1.5 5.69l-.294.214.112-.346-.294-.214h.364L1.5 5zm0 2l.112.345h.364l-.294.214.112.346L1.5 7.69l-.294.214.112-.346-.294-.214h.364L1.5 7zm2-6l.112.345h.364l-.294.214.112.346L3.5 1.69l-.294.214.112-.346-.294-.214h.364L3.5 1zm0 2l.112.345h.364l-.294.214.112.346L3.5 3.69l-.294.214.112-.346-.294-.214h.364L3.5 3zm0 2l.112.345h.364l-.294.214.112.346L3.5 5.69l-.294.214.112-.346-.294-.214h.364L3.5 5zm0 2l.112.345h.364l-.294.214.112.346L3.5 7.69l-.294.214.112-.346-.294-.214h.364L3.5 7zm2-6l.112.345h.364l-.294.214.112.346L5.5 1.69l-.294.214.112-.346-.294-.214h.364L5.5 1zm0 2l.112.345h.364l-.294.214.112.346L5.5 3.69l-.294.214.112-.346-.294-.214h.364L5.5 3zm0 2l.112.345h.364l-.294.214.112.346L5.5 5.69l-.294.214.112-.346-.294-.214h.364L5.5 5zm0 2l.112.345h.364l-.294.214.112.346L5.5 7.69l-.294.214.112-.346-.294-.214h.364L5.5 7zm2-6l.112.345h.364l-.294.214.112.346L7.5 1.69l-.294.214.112-.346-.294-.214h.364L7.5 1zm0 2l.112.345h.364l-.294.214.112.346L7.5 3.69l-.294.214.112-.346-.294-.214h.364L7.5 3zm0 2l.112.345h.364l-.294.214.112.346L7.5 5.69l-.294.214.112-.346-.294-.214h.364L7.5 5zm0 2l.112.345h.364l-.294.214.112.346L7.5 7.69l-.294.214.112-.346-.294-.214h.364L7.5 7zm2-6l.112.345h.364l-.294.214.112.346L9.5 1.69l-.294.214.112-.346-.294-.214h.364L9.5 1zm0 2l.112.345h.364l-.294.214.112.346L9.5 3.69l-.294.214.112-.346-.294-.214h.364L9.5 3zm0 2l.112.345h.364l-.294.214.112.346L9.5 5.69l-.294.214.112-.346-.294-.214h.364L9.5 5zm0 2l.112.345h.364l-.294.214.112.346L9.5 7.69l-.294.214.112-.346-.294-.214h.364L9.5 7zm2-6l.112.345h.364l-.294.214.112.346-.294-.214-.294.214.112-.346-.293-.214h.363L11.5 1zm0 2l.112.345h.364l-.294.214.112.346-.294-.214-.294.214.112-.346-.293-.214h.363L11.5 3zm0 2l.112.345h.364l-.294.214.112.346-.294-.214-.294.214.112-.346-.293-.214h.363L11.5 5zm0 2l.112.345h.364l-.294.214.112.346-.294-.214-.294.214.112-.346-.293-.214h.363L11.5 7z" fill="#fff"/></svg>