<svg width="68" height="68" fill="none" xmlns="http://www.w3.org/2000/svg"><circle cx="34" cy="34" r="34" fill="#E31E24"/><path fill-rule="evenodd" clip-rule="evenodd" d="M34.967 19.33c-2.69.393-4.345.659-4.453.716-.095.05-2.66 2.596-5.7 5.657-5.093 5.128-5.54 5.594-5.708 5.945-.475.997-.467 2.015.025 2.974.2.39.56.767 4.875 5.113 2.562 2.581 4.792 4.796 4.954 4.923l.295.23.034.507c.09 1.35.91 2.434 2.17 2.87l.387.135h13.936l.387-.134c.946-.329 1.653-1.033 2.027-2.02l.13-.343.016-8.03c.015-7.324.008-8.046-.078-8.212-.052-.101-.75-1.061-1.551-2.134A193.754 193.754 0 0145.21 25.5c-.025-.042-.014-.298.024-.57.104-.736.073-.791-1.07-1.937l-.954-.957.951-.96c1.161-1.174 1.265-1.368 1.014-1.889a.846.846 0 00-1.12-.406c-.1.048-.61.518-1.135 1.045l-.952.957-.984-.982c-.541-.54-1.058-1.01-1.147-1.045a1.169 1.169 0 00-.376-.056c-.117.004-2.14.288-4.494.63zm4.99 1.935l.765.77-.606.608-.608.607-.361-.355c-.434-.425-.539-.484-.864-.484a.853.853 0 00-.764 1.237c.124.245 2.407 2.562 2.738 2.777.687.447 1.46-.095 1.306-.918-.03-.155-.145-.322-.423-.612l-.383-.398.605-.608.605-.607.763.77.762.769-.56 3.935-.562 3.934-5.29 5.318c-3.111 3.126-5.388 5.37-5.524 5.443-.304.165-.946.175-1.243.02-.282-.147-9.517-9.414-9.673-9.706-.167-.312-.176-.947-.019-1.278.075-.157 1.832-1.964 5.391-5.546l5.281-5.313 3.862-.56c2.124-.31 3.9-.564 3.949-.568.048-.003.432.341.853.765zm-6.495 4.073a1.095 1.095 0 00-.328.258c-.112.134-.678 1.77-2.242 6.483-2.241 6.756-2.155 6.444-1.902 6.863.292.483 1.095.483 1.41 0 .133-.205 4.25-12.636 4.25-12.835 0-.27-.224-.604-.491-.734-.276-.135-.45-.143-.697-.035zM46.62 37.877c0 8.506.03 7.91-.432 8.376-.46.462.014.434-7.375.434s-6.915.028-7.375-.434c-.2-.202-.432-.656-.432-.848 0-.022.124-.059.275-.08a3.6 3.6 0 001.186-.388c.312-.163 1.107-.936 5.898-5.737 4.445-4.455 5.554-5.596 5.62-5.783.046-.128.243-1.383.438-2.788.195-1.406.366-2.592.38-2.636.015-.046.412.435.922 1.117l.895 1.197v7.57zm-20.292-8.144c-.928.183-1.764.97-1.999 1.88a2.575 2.575 0 00.734 2.567c.67.637 1.548.862 2.447.627 1.26-.33 2.108-1.652 1.88-2.934-.26-1.46-1.635-2.421-3.062-2.14zm9.736.018a2.662 2.662 0 00-1.745 1.413c-.19.388-.217.495-.238.978-.019.433 0 .621.099.944.558 1.846 2.92 2.422 4.294 1.047 1.004-1.005 1.013-2.6.02-3.645a2.539 2.539 0 00-2.43-.737zm-8.767 1.82c.399.3.503.705.286 1.113a.854.854 0 01-1.453.112c-.165-.225-.19-.666-.051-.917.232-.424.854-.58 1.218-.307zm9.848.022c.226.162.347.42.347.735 0 .625-.735 1.037-1.267.711-.52-.318-.568-1.099-.087-1.44.087-.064.211-.129.275-.146.196-.054.558.016.732.14z" fill="#F6C243"/></svg>