<svg width="68" height="68" fill="none" xmlns="http://www.w3.org/2000/svg"><circle cx="34" cy="34" r="34" fill="#746CDE"/><path d="M33.104 19.273l.448-.894-.448-.225-.449.225.449.894zm14.674 7.364h1v-.618l-.552-.276-.448.894zm0 14.727l.448.894.552-.277v-.617h-1zm-14.674 7.363l-.449.894.449.225.448-.225-.448-.894zM18.43 41.364h-1v.617l.551.276.449-.893zm0-14.727l-.449-.894-.551.276v.618h1zm21.826 9a1 1 0 002 0h-2zm1-5.728h1v-.617l-.552-.277-.448.894zM27.03 21.652a1 1 0 00-.897 1.787l.897-1.787zm5.074 26.257a1 1 0 102 0h-2zm.551-27.742L47.33 27.53l.897-1.787-14.674-7.364-.897 1.788zm14.123 6.47v14.727h2V26.637h-2zm.551 13.833l-14.674 7.364.897 1.787 14.674-7.364-.897-1.787zm-13.777 7.364L18.878 40.47l-.897 1.788 14.674 7.363.897-1.787zm-14.122-6.47V26.637h-2v14.727h2zm-.552-13.834l14.674-7.363-.897-1.788-14.674 7.364.897 1.787zm28.451-1.787l-14.674 7.363.897 1.788 14.674-7.364-.897-1.787zm-13.777 7.363l-14.674-7.363-.897 1.787 14.674 7.364.897-1.788zm8.704 2.53V29.91h-2v5.727h2zm-.552-6.62L27.03 21.651l-.897 1.787 14.674 7.364.897-1.788zm-7.6 18.893V34h-2v13.91h2z" fill="#F6C243"/></svg>