<svg width="68" height="68" fill="none" xmlns="http://www.w3.org/2000/svg"><circle cx="34" cy="34" r="34" fill="#746CDE"/><path d="M26.916 33.44h-1v2h1v-2zm13.272 2h1v-2h-1v2zm-13.27 4.656l-1-.002-.003 2 1 .002.002-2zm13.269 2.014l1 .001.002-2-1-.001-.002 2zm-13.27-15.326h-1l-.002 2h1l.002-2zm8.846 2.006h1l.002-2h-1l-.002 2zm4.425-9.88l.708-.706-.293-.294h-.415v1zm6.636 6.66h1v-.413l-.292-.293-.708.706zm-19.908 9.87h13.272v-2H26.916v2zm0 6.656l13.27.014.003-2-13.272-.014-.002 2zm0-13.312l8.847.006.002-2-8.848-.006-.002 2zM44.612 48.99h-22.12v2h22.12v-2zM21.28 47.77V21.13h-2v26.64h2zm1.212-27.86h17.696v-2H22.492v2zm23.332 5.66v22.2h2v-22.2h-2zm-6.344-5.954l6.635 6.66 1.417-1.412-6.636-6.66-1.416 1.412zM22.492 48.99a1.216 1.216 0 01-1.212-1.22h-2a3.216 3.216 0 003.212 3.22v-2zm22.12 2a3.216 3.216 0 003.212-3.22h-2c0 .677-.546 1.22-1.212 1.22v2zM21.28 21.13c0-.677.546-1.22 1.212-1.22v-2a3.216 3.216 0 00-3.212 3.22h2z" fill="#F6C243"/></svg>