<svg xmlns="http://www.w3.org/2000/svg" width="68" height="68" fill="none"><circle cx="34" cy="34" r="34" fill="#746CDE"/><path fill="#F6C243" fill-rule="evenodd" stroke="#F6C243" stroke-linecap="square" stroke-width=".5" d="M34 20.54c-3.4 0-6.137 2.769-6.137 6.16 0 3.39 2.736 6.159 6.138 6.159 3.401 0 6.138-2.769 6.138-6.16 0-3.39-2.737-6.159-6.138-6.159zm-7.298 6.16c0-4.073 3.28-7.351 7.299-7.351s7.298 3.278 7.298 7.35c0 4.073-3.28 7.351-7.298 7.351-4.02 0-7.299-3.278-7.299-7.35zm3.46 11.208c-3.401 0-6.139 2.77-6.139 6.162v4.227h19.955V44.07c0-3.392-2.737-6.162-6.138-6.162h-7.678zm-7.299 6.162c0-4.073 3.28-7.353 7.299-7.353h7.678c4.019 0 7.298 3.28 7.298 7.353v5.418H22.863V44.07z" clip-rule="evenodd"/></svg>