<svg width="19" height="19" fill="none" xmlns="http://www.w3.org/2000/svg"><path d="M1.386.886a.5.5 0 100 1v-1zm2.254.5l.485-.12a.5.5 0 00-.485-.38v.5zm12.17 12.22a.5.5 0 000-1v1zM17.613 3.19l.486.122a.5.5 0 00-.486-.622v.5zm-1.803 7.213v.5a.5.5 0 00.486-.38l-.486-.12zM1.386 1.886H3.64v-1H1.386v1zm1.769-.378l.45 1.803.97-.243-.45-1.803-.97.243zm.45 1.803l1.804 7.212.97-.243-1.803-7.212-.97.243zM5.895 9.9h-.45v1h.45v-1zm-.45 3.705h10.366v-1H5.443v1zM3.59 11.754c0 1.023.83 1.852 1.852 1.852v-1a.852.852 0 01-.852-.852h-1zm1.852-1.852a1.852 1.852 0 00-1.852 1.852h1c0-.47.381-.852.852-.852v-1zM4.091 3.69h13.522v-1H4.091v1zm13.037-.622l-1.803 7.212.97.243L18.1 3.31l-.97-.243zM15.81 9.902H5.894v1h9.916v-1zm-.5 6.81c0 .222-.18.402-.401.402v1c.774 0 1.402-.628 1.402-1.402h-1zm-.401.402a.402.402 0 01-.402-.402h-1c0 .774.628 1.402 1.402 1.402v-1zm-.402-.402c0-.221.18-.401.402-.401v-1c-.774 0-1.402.627-1.402 1.401h1zm.402-.401c.222 0 .401.18.401.401h1a1.4 1.4 0 00-1.401-1.401v1zm-8.614.401c0 .222-.18.402-.401.402v1c.774 0 1.401-.628 1.401-1.402h-1zm-.401.402a.401.401 0 01-.402-.402h-1c0 .774.628 1.402 1.402 1.402v-1zm-.402-.402c0-.221.18-.401.402-.401v-1c-.774 0-1.402.627-1.402 1.401h1zm.402-.401c.222 0 .401.18.401.401h1a1.4 1.4 0 00-1.401-1.401v1z" fill="#fff"/></svg>