<svg width="19" height="19" fill="none" xmlns="http://www.w3.org/2000/svg"><path d="M1.386.637a.75.75 0 000 1.5v-1.5zm2.254.75l.728-.182A.75.75 0 003.64.637v.75zm12.17 12.47a.75.75 0 000-1.5v1.5zM17.613 3.19l.728.182a.75.75 0 00-.728-.932v.75zm-1.803 7.212v.75a.75.75 0 00.728-.568l-.728-.182zM1.386 2.137H3.64v-1.5H1.386v1.5zm1.526-.568l.451 1.803 1.455-.364-.45-1.803-1.456.364zm.451 1.803l1.803 7.212 1.455-.364-1.803-7.212-1.455.364zm2.53 6.28h-.45v1.5h.45v-1.5zm-.45 4.204H15.81v-1.5H5.443v1.5zm-2.102-2.102c0 1.161.941 2.102 2.102 2.102v-1.5a.602.602 0 01-.602-.602h-1.5zm2.102-2.102a2.102 2.102 0 00-2.102 2.102h1.5c0-.332.27-.602.602-.602v-1.5zM4.091 3.94h13.522v-1.5H4.091v1.5zm12.795-.932l-1.803 7.212 1.455.364 1.803-7.212-1.455-.364zM15.81 9.652H5.893v1.5h9.916v-1.5zm-.75 7.06a.152.152 0 01-.152.152v1.5c.912 0 1.652-.74 1.652-1.652h-1.5zm-.152.152a.152.152 0 01-.152-.152h-1.5c0 .913.74 1.652 1.652 1.652v-1.5zm-.152-.152c0-.083.068-.151.152-.151v-1.5c-.912 0-1.652.74-1.652 1.651h1.5zm.152-.151a.15.15 0 01.151.151h1.5a1.65 1.65 0 00-1.651-1.651v1.5zm-8.864.151a.151.151 0 01-.151.152v1.5c.912 0 1.651-.74 1.651-1.652h-1.5zm-.151.152a.151.151 0 01-.152-.152h-1.5c0 .913.74 1.652 1.652 1.652v-1.5zm-.152-.152c0-.083.068-.151.152-.151v-1.5c-.912 0-1.652.74-1.652 1.651h1.5zm.152-.151c.083 0 .151.068.151.151h1.5c0-.912-.74-1.651-1.651-1.651v1.5z" fill="#353255"/></svg>