<svg width="22" height="22" fill="none" xmlns="http://www.w3.org/2000/svg"><path d="M11 1l.224-.447L11 .44l-.224.112L11 1zm10 5h.5v-.309l-.276-.138L21 6zm0 10l.224.447.276-.138V16H21zm-10 5l-.224.447.224.112.224-.112L11 21zM1 16H.5v.309l.276.138L1 16zM1 6l-.224-.447L.5 5.69V6H1zm15.056 6.111a.5.5 0 101 0h-1zm.5-3.889h.5v-.309l-.277-.138-.223.447zM6.779 2.775a.5.5 0 10-.447.894l.447-.894zm3.721 17.67a.5.5 0 101 0h-1zm.276-18.998l10 5 .448-.894-10-5-.448.894zM20.5 6v10h1V6h-1zm.276 9.553l-10 5 .448.894 10-5-.448-.894zm-9.552 5l-10-5-.448.894 10 5 .448-.894zM1.5 16V6h-1v10h1zm-.276-9.553l10-5-.448-.894-10 5 .448.894zm19.552-.894l-10 5 .448.894 10-5-.448-.894zm-9.552 5l-10-5-.448.894 10 5 .448-.894zm5.832 1.558V8.222h-1v3.89h1zm-.277-4.336l-10-5-.447.894 10 5 .447-.894zM11.5 20.445V11h-1v9.444h1z" fill="#353255"/></svg>