<svg width="102" height="102" fill="none" xmlns="http://www.w3.org/2000/svg"><circle cx="51" cy="51" r="51" fill="#F6C243"/><path d="M40.14 36v-8.46h3.697c.888 0 1.576.196 2.064.588.488.384.732.92.732 1.608 0 .456-.116.848-.348 1.176a1.993 1.993 0 01-.96.72c.48.136.852.376 1.116.72.272.336.408.764.408 1.284 0 .752-.256 1.336-.768 1.752-.504.408-1.208.612-2.112.612H40.14zm1.477-4.872h1.956c1.048 0 1.572-.404 1.572-1.212 0-.808-.524-1.212-1.572-1.212h-1.956v2.424zm0 3.708h2.16c1.056 0 1.584-.424 1.584-1.272 0-.848-.528-1.272-1.584-1.272h-2.16v2.544zm10.722 1.284c-.88 0-1.636-.176-2.268-.528a3.645 3.645 0 01-1.44-1.512c-.337-.656-.505-1.428-.505-2.316 0-.888.169-1.656.505-2.304a3.569 3.569 0 011.44-1.5c.632-.36 1.388-.54 2.268-.54.568 0 1.104.088 1.608.264.511.176.931.428 1.26.756l-.505 1.224a3.64 3.64 0 00-1.103-.66 3.36 3.36 0 00-1.212-.216c-.856 0-1.508.26-1.956.78-.448.512-.672 1.244-.672 2.196 0 .952.224 1.688.672 2.208.448.52 1.1.78 1.956.78.431 0 .835-.068 1.212-.204a3.861 3.861 0 001.104-.672l.503 1.224c-.328.32-.748.572-1.26.756a4.843 4.843 0 01-1.607.264zm4.208-.12v-8.46h5.628v1.224h-4.152v2.328h3.888v1.224h-3.888v2.46h4.152V36h-5.628zM21.994 52v-8.46h7.356V52h-1.536v-7.176H23.53V52h-1.536zm9.2 0v-8.46h3.671c.928 0 1.645.232 2.148.696.505.464.757 1.112.757 1.944 0 .832-.253 1.484-.757 1.956-.503.464-1.22.696-2.148.696H32.73V52h-1.535zm1.536-4.38h1.896c1.104 0 1.656-.48 1.656-1.44 0-.952-.552-1.428-1.656-1.428H32.73v2.868zm9.967 4.5c-.817 0-1.533-.18-2.149-.54a3.692 3.692 0 01-1.416-1.512c-.335-.656-.503-1.424-.503-2.304 0-.888.168-1.656.504-2.304a3.612 3.612 0 011.415-1.5c.608-.36 1.325-.54 2.148-.54.825 0 1.54.18 2.148.54.608.352 1.08.852 1.416 1.5.337.648.505 1.412.505 2.292 0 .888-.169 1.66-.505 2.316a3.692 3.692 0 01-1.416 1.512c-.608.36-1.324.54-2.148.54zm0-1.32c.775 0 1.38-.268 1.811-.804.432-.536.648-1.28.648-2.232 0-.96-.215-1.704-.648-2.232-.424-.528-1.028-.792-1.812-.792-.776 0-1.38.264-1.811.792-.432.528-.648 1.272-.648 2.232 0 .952.215 1.696.648 2.232.431.536 1.035.804 1.812.804zm5.63 1.2v-8.46h5.627v1.224h-4.152v2.328h3.888v1.224h-3.888v2.46h4.152V52h-5.628zm7.16 0v-8.46h1.535v3.588h1.2l2.268-3.588h1.692l-2.532 3.864c.32.144.6.348.84.612.248.256.468.58.66.972L62.616 52h-1.669l-1.127-2.436c-.193-.416-.425-.712-.697-.888-.264-.176-.596-.264-.995-.264h-1.105V52h-1.535zm10.137 0v-7.176H62.72V43.54h7.344v1.284H67.16V52h-1.536zm5.413 0v-8.46h1.536v3.528h1.932c.904 0 1.608.208 2.112.624.512.416.768 1.028.768 1.836 0 .8-.256 1.412-.768 1.836-.504.424-1.208.636-2.112.636h-3.468zm7.428 0v-8.46h1.536V52h-1.536zm-5.892-1.224h1.74c1.056 0 1.584-.416 1.584-1.248 0-.824-.528-1.236-1.584-1.236h-1.74v2.484zM49.646 82.354a.5.5 0 00.708 0l3.181-3.182a.5.5 0 10-.707-.707L50 81.293l-2.828-2.829a.5.5 0 10-.707.708l3.181 3.182zM49.5 64v18h1V64h-1z" fill="#353255"/></svg>