<svg width="20" height="20" fill="none" xmlns="http://www.w3.org/2000/svg"><path fill-rule="evenodd" clip-rule="evenodd" d="M17.451 6.905c.033.573.049 1.605.049 3.095 0 1.491-.016 2.523-.049 3.096-.065 1.354-.468 2.402-1.21 3.145-.743.742-1.79 1.146-3.145 1.211-.573.031-1.604.049-3.096.049-1.49 0-2.522-.018-3.095-.049-1.355-.065-2.402-.469-3.145-1.211-.742-.743-1.146-1.79-1.211-3.145C2.517 12.523 2.5 11.491 2.5 10c0-1.49.017-2.522.049-3.095.065-1.355.469-2.402 1.211-3.145.743-.742 1.79-1.146 3.145-1.211C7.478 2.517 8.51 2.5 10 2.5c1.492 0 2.523.017 3.096.049 1.354.065 2.402.469 3.145 1.211.742.743 1.145 1.79 1.21 3.145M14.638 5.36a.868.868 0 01.264.636.865.865 0 01-.263.634.864.864 0 01-.635.264.863.863 0 01-.634-.264.862.862 0 01-.264-.634c0-.248.087-.46.264-.636a.865.865 0 01.634-.263.87.87 0 01.635.263m-1.914 1.915c.748.748 1.122 1.657 1.122 2.724 0 1.068-.374 1.976-1.122 2.725-.749.749-1.657 1.123-2.725 1.123-1.067 0-1.976-.374-2.724-1.123-.749-.749-1.124-1.657-1.124-2.725 0-1.067.375-1.976 1.124-2.724.748-.749 1.657-1.124 2.724-1.124 1.068 0 1.976.375 2.725 1.124m-.957 4.492a2.41 2.41 0 00.73-1.767c0-.689-.243-1.279-.732-1.767A2.41 2.41 0 0010 7.5c-.69 0-1.279.245-1.768.733A2.411 2.411 0 007.5 10c0 .69.245 1.28.732 1.768a2.409 2.409 0 001.768.733c.69 0 1.28-.244 1.768-.733" fill="#F5F5F5"/></svg>