<svg width="24" height="24" fill="none" xmlns="http://www.w3.org/2000/svg"><path fill-rule="evenodd" clip-rule="evenodd" d="M23.624 7.171c.051.894.076 2.504.076 4.829 0 2.326-.025 3.936-.076 4.83-.102 2.113-.732 3.747-1.889 4.906-1.158 1.158-2.792 1.787-4.905 1.89-.894.048-2.503.075-4.83.075-2.325 0-3.935-.027-4.829-.076-2.113-.102-3.747-.731-4.906-1.89C1.107 20.578.478 18.944.375 16.83.326 15.936.3 14.326.3 12c0-2.325.026-3.935.076-4.829.102-2.113.731-3.747 1.89-4.905C3.423 1.107 5.057.478 7.17.376 8.065.326 9.675.3 12 .3c2.327 0 3.936.026 4.83.076 2.113.102 3.747.731 4.905 1.89 1.157 1.158 1.787 2.792 1.889 4.905zm-4.388-2.407c.274.275.412.605.412.99 0 .387-.138.717-.412.99a1.348 1.348 0 01-.99.412 1.35 1.35 0 01-.99-.411 1.346 1.346 0 01-.411-.99c0-.386.137-.716.412-.991.273-.274.603-.411.99-.411.384 0 .715.137.99.41zM16.25 7.75c1.168 1.167 1.752 2.584 1.752 4.25 0 1.665-.584 3.082-1.752 4.25-1.167 1.169-2.584 1.752-4.25 1.752-1.665 0-3.082-.583-4.25-1.751C6.583 15.083 5.998 13.666 5.998 12c0-1.665.585-3.082 1.752-4.25C8.918 6.584 10.335 5.999 12 5.999c1.666 0 3.083.585 4.25 1.753zm-1.493 7.007A3.758 3.758 0 0015.9 12c0-1.075-.38-1.995-1.142-2.756A3.759 3.759 0 0012 8.1c-1.075 0-1.995.382-2.758 1.144A3.762 3.762 0 008.1 12c0 1.076.382 1.996 1.142 2.758A3.758 3.758 0 0012 15.9c1.076 0 1.996-.38 2.757-1.143z" fill="url(#paint0_linear_366_11350)"/><defs><linearGradient id="paint0_linear_366_11350" x1="17.301" y1="1.214" x2="1.761" y2="32.659" gradientUnits="userSpaceOnUse"><stop offset=".005" stop-color="#721AB3"/><stop offset=".099" stop-color="#6E00C4"/><stop offset=".849" stop-color="#FFB649"/><stop offset="1" stop-color="#9D017F"/></linearGradient></defs></svg>