<svg width="64" height="69" fill="none" xmlns="http://www.w3.org/2000/svg"><path fill-rule="evenodd" clip-rule="evenodd" d="M55.74 9.504c-.028 3.014-.045 5.6-1.821 8.465-1.955 3.153-4.931 4.728-8.567 4.985l.179 1.533c-2.122.209-3.721.077-5.582-.973l1.134-1.534C31.242 14.915 37.86-.983 48.814.92c4.056.705 6.143 4.98 6.925 8.584zM42.365 4.077l1.612.265c-.733.366-2.387 3.65-2.387 5.25l-1.94-.325c0-1.655 1.827-4.759 2.715-5.19zM5.424 6.128l1.88-.325c-.68.671-1.136 4.495-.567 6.725l-2.269.442c-.767-3.059.176-4.666.896-6.814l.06-.028zM18.11 25.093l-1.791.766.806 1.623-.627.295-.687.295-.806.235-.836.266-.925.118-.925.089-.896-.06-.836-.117.06-.354.09-.325.089-.354.12-.325.06-.354.09-.235.059-.148.03-.058-1.374-.413-1.373-.59C-1.65 20.434-1.308 2.297 11.244.11c4.692-.818 8.93 3.069 11.134 6.784-6.16 4.26-.89 11.945-3.012 17.209-.192.477-.808.67-1.256.99z" fill="#E31E24"/><path fill-rule="evenodd" clip-rule="evenodd" d="M22.587 7.69l1.94.058c-1.255 1.253-2 4.43-2 6.49l-2.298-.06c0-2.55 1.509-6.076 2.358-6.488zm16.418 4.336c.443 3.555.85 6.522-.776 10.146-1.812 4.035-4.979 6.257-9.224 7.108l.448 1.74c-2.49.537-4.24.717-6.657-.294l1.045-1.947c-5.726-3.175-7.822-8.297-6.836-14.688 1.471-9.53 11.933-14.23 17.94-8.672 1.84 1.702 3.309 4.234 4.06 6.607zM53.323 26.67l-1.552.885v-.354l-.03-.324-.06-.354-.03-.354-.09-.354-.06-.236-.059-.148v-.059l.03-.059.12-.088.149-.147.268-.119.24-.177.268-.147.269-.118.268-.059.269 2.212zm-1.309 41.445L50.49 69v-.324l-.03-.325-.059-.383-.03-.325-.09-.354-.06-.236-.059-.147v-.059l.03-.059.12-.088.149-.148.268-.147.239-.178.269-.147.238-.118.27-.059.268 2.212zM13.227 57.42l-1.553.886v-.679l-.06-.354-.059-.354-.09-.354-.06-.236-.029-.147v-.06l.03-.058.12-.089.148-.147.24-.118.238-.177.269-.148.268-.117.27-.06.268 2.212zm14.392 5.168l-1.553.885v-.678l-.06-.354-.059-.354-.09-.354-.06-.236-.03-.148v-.059l.03-.059.12-.088.15-.147.268-.119.239-.177.268-.147.269-.118.269-.059.239 2.212zM5.244 31.493l-1.552.885v-.679l-.06-.353-.06-.325-.089-.354-.06-.236-.03-.147v-.059l.03-.06.12-.088.149-.147.269-.118.238-.177.27-.147.238-.148.269-.059.268 2.212zm36.341 24.39l-.358.177-.27.295-.268.324-.209.413-.268.325-.27.294-.297.148-.299.06v-.296l-.09-.206-.179-.207-.149-.206-.18-.236-.089-.207-.06-.295.12-.265 1.791-2.212 1.075 2.094z" fill="#E31E24"/><path fill-rule="evenodd" clip-rule="evenodd" d="M15.512 32.063l2.085-1.751.756.025.234 5.64-.573-.05c-2.19-2.795-4.941-4.213-8.497-4.534l-2.555.026c-3.038.639-2.37 2.78.209 3.786 1.938.698 3.808.902 5.76 1.417 10.676 2.163 8.72 12.135.079 12.955l-.235.077c-2.927.066-7.425.187-10.296-1.34l-.26-.05-1.121 1.364H.446l.052-1.648c1.56-3.409 3.462-3.99 6.308-5.64l.026-.233-1.225-.18-1.225-.412c-2.258-.771-3.64-1.91-4.353-4.327-.072-2.163-.128-2.775 1.355-4.404 1.138-1.047 2.45-1.683 3.936-1.906 1.885-.374 3.666-.16 5.474 0 1.531.242 2.52.543 3.884.979.245.114.834.59.834.206zM7.718 42.494c-1.52.807-2.884 1.727-4.066 3.013-1.583 1.646 2.975 2.672 4.379 3.014 2.393.378 7.025 1.223 7.507-2.112-.046-2.749-5.347-3.32-7.82-3.915zm30.289-10.38L29.3 34.536l-6.673 1.905-5.5 1.752 1.043.695 2.346-.953.078 4.353.417.026.052-1.03c.641-1.489 2.003-4.506 3.519-4.276l.078 9.452-1.72-.026v.825l9.305-.057v-.732l-1.922-.026V35.346l1.714-.013c1.095.706 1.649 1.545 1.844 2.682l.078.898.584-.013-.025-4.273.974-.36.804-.166.455-.09.325-.09.93-1.807zm2.407-.566l.818-.245-.182-1.962-.532 1.168-.104 1.039zm1.922-7.34c.213 2.213.398 4.41.805 6.596 4.43-1.102 8.788-2.13 13.271-2.964 1.19-.138 5.3-1.076 2.247.012l-1.48.54c-4.289 1.757-8.66 3.893-12.74 6.338l.481 1.18c.918-.39 1.829-.761 2.766-1.103 3.465-1.417 10.952-3.793 13.726-.988 2.595 3.58-2.732 5.792-5.662 6.056l-1.208.167-.013.256c6.3.1 4.746 2.713 5.35 5.543l.442.219.857.051.454-.295c.962-1.004.933-.052.104.436-2.406 1.572-4.04 1.724-5.986 1.168l-.844-.385c-2.371-1.35-2.076-2.665-1.935-5.03.181-1.95-1.046-1.82-2.779-1.732l-.246-.013.012 6.377 1.922.013-.026.577-10.648-.025-.013-.565h1.52l.012-7.865-.597.295-.714.449-.584.385v-.783l.766-.731.571-.45.61-.59.455-.385.09-.102-.376-.757-.506.038c-2.459 2.089-4.15 4.47-6 7.135-1.051 1.384-2.014 2.951-2.83 4.477 1.297-7.074 2.697-13.627 6.48-19.618l2.246-3.927zm1.483 8.241l.313.799 3.91-1.726-4.118.824-.105.103zm-5.995 6.053l4.093-4.07-.105-1.545-2.658.618c-.813.806-1.02 3.052-1.33 4.997zm3.441.566c2.739-2.753 6.319-4.108 9.931-4.61-2.069.626-4.234 1.168-5.995 2.473l4.04 8.061-1.903-1.726c-1.456-1.178-2.453-2.061-4.197-2.73l.027-1.854 1.225 1.108 2.554 2.292-3.128-4.404-2.554 1.39zm8.706-3.786V39.3h2.06c.355-.163.642-.464.86-.901-.027-2.552.139-3.334-2.92-3.117zM.075 51.907H64v1.031H.075v-1.032z" fill="#E31E24"/><path d="M2.14 61.15c0-.728.24-1.347.722-1.859.568-.604 1.37-.907 2.405-.907.839 0 1.563.272 2.171.816.609.543.913 1.197.913 1.961 0 .756-.306 1.394-.918 1.912-.613.519-1.342.778-2.187.778h-.69v1.405H2.14V61.15zm3.106-1.276l-.23.703H4.25l.613.454-.23.713.613-.443.623.443-.24-.713.623-.454h-.766l-.24-.703zm-.69 2.119v1.599h.34v-1.869l-.34.27zm14.11-2.092l-.23.703h-.765l.623.454-.24.713.612-.443.623.443-.24-.713.623-.454h-.765l-.241-.703zm.35 3.718v-1.805l-.35-.226v2.03h.35zm-3.718-2.474c0-.757.31-1.402.93-1.935.619-.533 1.373-.8 2.263-.8.867 0 1.614.267 2.242.8.626.533.94 1.178.94 1.934v2.734h-3.182c-.875 0-1.626-.266-2.253-.8-.627-.532-.94-1.177-.94-1.934zm16.029 2.786v-3.025c0-.612.297-1.173.892-1.68.594-.508 1.245-.762 1.952-.762h.612v2.312a.443.443 0 00-.307.12.392.392 0 00-.13.302v2.733h-3.019zm3.281-3.328v-.26a.61.61 0 00-.492.244.94.94 0 00-.197.61v2.475h.252v-2.474c0-.173.04-.315.12-.428a.373.373 0 01.317-.167zm9.541-2.166v-.584l2.504-1.761h.525v2.345h.514v2.01h-.514v3.457h-3.03v-3.458h-.677v-2.01h.678zm2.504-2.172h.35v2.172h-.35v-2.172zm.35 4.181v3.199h-.35v-3.199h.35zm9.783-3.427h2.416v1.923h.23l.36-1.07.359 1.072.003-1.925h2.854v2.96c0 .52-.204 1.009-.612 1.47-.38.425-.835.724-1.367.897v1.545h-2.34v-1.578a3.095 3.095 0 01-1.291-.864c-.408-.454-.612-.944-.612-1.47v-2.96zm3.543.26v1.663h.251v-1.664h-.251zm-.538 1.123l-.24.713h-.753l.59.443-.185.713.601-.443.612.443-.242-.728.614-.428h-.758l-.239-.713z" fill="#E31E24"/><path fill-rule="evenodd" clip-rule="evenodd" d="M3.626 26.37l-1.552.884v-.678l-.06-.354-.06-.354-.089-.354-.06-.236-.03-.147v-.06l.03-.058.12-.089.15-.147.238-.118.238-.177.27-.147.268-.119.269-.059.268 2.213zm20.002 24.149l-1.552.885v-.679l-.06-.354-.06-.353-.09-.355-.059-.235-.03-.148v-.059l.03-.06.12-.087.149-.148.238-.118.24-.177.268-.147.269-.118.268-.06.269 2.213zm30.877.191l-1.522.886v-.325l-.03-.324-.06-.384-.03-.324-.09-.354-.059-.236-.06-.148v-.058l.03-.06.12-.088.149-.147.269-.148.239-.177.268-.147.239-.118.268-.06.27 2.213z" fill="#E31E24"/></svg>