<svg width="55" height="55" fill="none" xmlns="http://www.w3.org/2000/svg"><rect x="20" y="31.25" width="2.5" height="7.5" rx="1" fill="#F6C243"/><rect x="17.5" y="36.25" width="2.5" height="7.5" rx="1" transform="rotate(-90 17.5 36.25)" fill="#F6C243"/><path fill-rule="evenodd" clip-rule="evenodd" d="M25.888.112c-.846.182-1.54.425-2.023.71-.348.205-.382.206-1.025.03-.887-.243-2.78-.243-3.767 0-.893.22-2.11.777-2.765 1.267-.348.26-.68.396-1.185.484-1.54.267-2.897 1.01-4.203 2.302-.728.72-1.018 1.104-1.373 1.814-.248.495-.45.966-.45 1.046 0 .08-.368.315-.817.523-2.094.966-3.686 2.665-4.32 4.605-.144.442-.396.92-.627 1.19-.475.553-1.171 1.95-1.404 2.816-.095.355-.199 1.157-.23 1.781-.066 1.357.2 2.626.732 3.483.308.495.317.536.134.637-.55.306-1.465 1.34-1.813 2.054-.58 1.186-.746 1.963-.746 3.502 0 2.022.495 3.54 1.509 4.622l.505.54-.45.458c-.524.535-1.112 1.672-1.377 2.664-.258.966-.257 3.13.003 4.088.286 1.057.757 1.978 1.319 2.578l.505.539-.45.459c-.524.535-1.112 1.671-1.377 2.663-.257.96-.257 3.128 0 4.088.45 1.683 1.433 3.034 2.637 3.625.856.42 1.963.427 2.822.02.616-.293 1.522-1.117 1.789-1.628.085-.163.19-.296.236-.296.044 0 .266.256.493.57 1.823 2.513 5.037 2.097 6.476-.839.577-1.178.743-1.958.743-3.496 0-2.022-.495-3.539-1.51-4.623l-.506-.54.48-.513c1.031-1.102 1.536-2.63 1.536-4.651 0-2.023-.495-3.539-1.51-4.623l-.506-.54.48-.514c1.6-1.71 2.053-5.104 1.02-7.66l-.265-.656.5-.518c1.254-1.299 2.062-3.413 2.062-5.398 0-.684.019-.745.242-.788 1.224-.236 1.617-.361 2.43-.771 1.237-.626 2.277-1.535 3.174-2.779.14-.195.176-.188.944.188 1.226.599 1.99.764 3.543.764 1.552 0 2.317-.165 3.543-.764l.798-.39.214.31c.117.17.639.731 1.158 1.245.782.775 1.117 1.019 1.948 1.422.875.425 1.305.562 2.43.775.223.043.242.104.242.788 0 1.985.808 4.099 2.062 5.398l.5.518-.266.657c-1.027 2.54-.583 5.945.994 7.63l.505.54-.45.458c-.524.535-1.111 1.672-1.377 2.664-.258.966-.257 3.13.003 4.088.286 1.057.758 1.978 1.319 2.578l.505.539-.45.459c-.524.535-1.111 1.671-1.377 2.663-.257.96-.257 3.128 0 4.088.45 1.683 1.433 3.034 2.637 3.625.856.42 1.963.427 2.822.02.616-.293 1.522-1.117 1.789-1.628.085-.163.191-.296.236-.296.044 0 .267.256.494.57 1.822 2.513 5.037 2.097 6.475-.839.577-1.178.743-1.958.743-3.496 0-2.022-.495-3.539-1.51-4.623l-.506-.54.48-.513C54.495 42.233 55 40.705 55 38.684c0-2.023-.495-3.539-1.51-4.623l-.506-.54.48-.514c1.031-1.102 1.536-2.63 1.536-4.65 0-1.54-.165-2.317-.746-3.503-.348-.713-1.262-1.748-1.813-2.053-.183-.102-.174-.143.134-.638.531-.857.798-2.126.731-3.483-.03-.624-.134-1.425-.229-1.78-.233-.866-.929-2.264-1.402-2.815-.226-.264-.492-.765-.646-1.22-.667-1.97-2.208-3.61-4.303-4.577-.45-.208-.817-.443-.817-.523 0-.08-.191-.528-.425-.994-.726-1.45-2.138-2.803-3.689-3.534-.796-.375-1.867-.699-2.312-.699-.135 0-.476-.177-.758-.394-.66-.507-1.861-1.063-2.792-1.292-.977-.24-2.882-.243-3.743-.006l-.642.177-.65-.316A8.745 8.745 0 0029.602.22c-.895-.239-2.837-.294-3.714-.107zm23.143.845c-.529.167-1.43 1.1-1.592 1.647-.298 1.009-.087 1.813.673 2.573 1.09 1.089 2.47 1.089 3.56 0 1.051-1.05 1.083-2.388.082-3.5-.697-.775-1.703-1.04-2.723-.72zM29.486 1.992c1.288.453 1.985 1.03 2.23 1.842.43 1.437-1.317 2.81-3.783 2.972-1.958.128-3.845-.605-4.491-1.745-.755-1.332.485-2.773 2.823-3.28.722-.158 2.506-.04 3.22.211zm-7.82.396l.325.065-.229.5c-.341.746-.322 1.921.046 2.705.288.612 1.115 1.52 1.632 1.788.359.187.373.316.053.48a2.96 2.96 0 00-.527.39c-.265.247-.303.254-.538.103-.498-.32-1.483-.526-2.312-.484-.68.034-.788.016-.734-.124.66-1.689.36-3.405-.77-4.4l-.482-.424.606-.227c.963-.36 2.203-.517 2.93-.372zm13.349.046c.372.06.943.21 1.269.332l.593.221-.483.425c-1.13.994-1.43 2.71-.77 4.4.054.139-.054.157-.734.123-.825-.042-1.814.164-2.307.48-.23.148-.274.137-.602-.142a6.761 6.761 0 00-.56-.433c-.2-.128-.2-.134.01-.29 1.146-.842 1.693-1.517 1.953-2.41a3.27 3.27 0 00-.159-2.211l-.215-.486.234-.045c.443-.087 1.096-.073 1.77.036zm15.474.368c.534.534.155 1.457-.597 1.457-.443 0-.861-.418-.861-.86 0-.443.418-.861.86-.861.21 0 .431.098.598.264zm-33.36 1.679c.974.471 1.154 1.689.459 3.1-1.165 2.365-4.677 4.04-6.257 2.986-.848-.566-.942-1.634-.264-3.006 1.16-2.345 4.292-3.937 6.062-3.08zm23.213.003c1.521.51 2.92 1.71 3.6 3.085.675 1.363.58 2.433-.267 2.998-.784.523-2.007.418-3.464-.298-2.838-1.394-4.248-4.843-2.362-5.776.621-.308 1.594-.311 2.493-.01zM29.486 8.877c1.288.453 1.985 1.03 2.23 1.842.43 1.437-1.317 2.81-3.783 2.972-1.958.128-3.845-.605-4.491-1.745-.755-1.332.485-2.773 2.823-3.28.722-.158 2.506-.04 3.22.211zm-8.222.937c.33.132.421.218.369.35-.196.488-.174 1.375.05 2.039l.232.682-.292.501c-.49.842-1.531 1.774-2.539 2.274-2.81 1.391-4.838.27-3.97-2.197.868-2.471 4.18-4.437 6.15-3.65zm14.773.049c1.74.584 3.31 2.05 3.856 3.6.867 2.467-1.16 3.588-3.971 2.197-1.008-.5-2.05-1.432-2.54-2.274l-.29-.5.23-.683c.228-.671.247-1.55.046-2.054-.198-.494 1.506-.677 2.669-.286zM9.536 11.21c.332.482 1.086 1.01 1.767 1.236.237.078.846.144 1.353.147l.922.003-.18.583c-.178.571-.192.585-.734.724a4.212 4.212 0 00-1.898 1.017l-.463.426-.171-.502c-.55-1.612-1.924-2.732-3.354-2.732-.264 0-.48-.04-.48-.089 0-.203 1.427-1.494 2.005-1.814l.622-.344.153.45c.084.249.29.651.458.895zm38.392-.032c.429.415.78.796.78.845 0 .05-.216.09-.48.09-1.42 0-2.808 1.129-3.353 2.728l-.17.499-.501-.441c-.6-.529-1.118-.806-1.862-.996-.542-.139-.556-.153-.733-.724l-.18-.583.975-.012c.61-.008 1.152-.078 1.445-.187.968-.362 1.8-1.195 2.076-2.08l.138-.444.542.274c.298.151.893.615 1.323 1.03zM7.687 14.165c.19.14.492.556.675.927.635 1.289.516 3.294-.292 4.928-1.07 2.164-2.94 2.873-3.983 1.509-.91-1.191-.922-3.554-.029-5.427.397-.832 1.456-1.948 2.025-2.134.545-.179 1.205-.097 1.604.197zm41.4-.078c1.84.857 3.03 4.138 2.322 6.41-.36 1.154-.97 1.728-1.839 1.728-1.29 0-2.696-1.64-3.183-3.712-.256-1.088-.17-2.51.2-3.317.586-1.278 1.379-1.63 2.5-1.109zm-35.53 2.057a3.06 3.06 0 001.417 1.399c.43.204.473.323.473 1.28 0 1.387-.624 3.095-1.48 4.047l-.436.484-.254-.237c-.503-.468-1.266-.726-2.153-.729l-.824-.002-.117-.583c-.458-2.278.645-5.137 2.323-6.021.624-.33.731-.293 1.052.362zm28.92-.368c1.684.859 2.806 3.74 2.346 6.027l-.117.583-.825.002c-.886.003-1.648.26-2.153.73l-.255.236-.46-.52c-.876-.991-1.454-2.584-1.454-4.009 0-.96.043-1.078.473-1.282a3.06 3.06 0 001.416-1.399c.159-.324.358-.59.442-.59.084 0 .348.1.587.222zm-10.404 5.099c-.231.23-.265.36-.265 1.027 0 .666.034.796.265 1.027a.868.868 0 00.597.264c.21 0 .43-.098.596-.264.231-.231.265-.36.265-1.027 0-.667-.034-.796-.264-1.027a.868.868 0 00-.597-.264.87.87 0 00-.597.264zM8.769 23.18c.003.081-.153.324-.345.539a9.36 9.36 0 00-.54.658c-.18.257-.194.26-.322.065a7.675 7.675 0 00-.372-.495l-.239-.292.508-.33c.28-.18.628-.458.776-.615l.269-.287.13.304c.072.168.132.371.135.453zm39 .296l.297.155-.35.453c-.194.25-.37.478-.391.507-.022.03-.12-.067-.217-.214a7.566 7.566 0 00-.542-.676c-.353-.394-.361-.423-.236-.839l.129-.43.505.445c.279.245.64.515.804.6zm-18.28-.02a.866.866 0 00-.264.597c0 .21.098.43.264.597.231.23.361.264 1.028.264s.797-.033 1.027-.264a.867.867 0 00.264-.597c0-.21-.097-.43-.264-.596-.23-.23-.36-.264-1.027-.264-.667 0-.797.033-1.027.264zm4.306 0a.866.866 0 00-.264.597c0 .21.097.43.264.597.23.23.36.264 1.027.264.667 0 .797-.033 1.028-.264a.866.866 0 00.264-.597c0-.21-.097-.43-.264-.596-.23-.23-.36-.264-1.028-.264-.666 0-.796.033-1.027.264zm-28.74.842c.776.44 1.425 1.563 1.68 2.913.33 1.736-.26 4.033-1.264 4.913-1.617 1.42-3.568-.309-3.766-3.337-.128-1.958.605-3.843 1.746-4.49.54-.305 1.064-.305 1.604 0zm6.89 0c.775.44 1.424 1.563 1.68 2.913.33 1.736-.262 4.033-1.265 4.913-1.617 1.42-3.568-.309-3.766-3.337-.128-1.958.605-3.843 1.746-4.49.54-.305 1.064-.305 1.604 0zm32.721 0c.776.44 1.425 1.563 1.681 2.913.33 1.736-.262 4.033-1.264 4.913-1.618 1.42-3.569-.309-3.767-3.337-.128-1.958.605-3.843 1.746-4.49.54-.305 1.064-.305 1.604 0zm6.89 0c.775.44 1.424 1.563 1.68 2.913.33 1.736-.262 4.033-1.264 4.913-1.618 1.42-3.569-.309-3.767-3.337-.128-1.958.605-3.843 1.746-4.49.54-.305 1.064-.305 1.604 0zm-19.483.88c-.231.23-.265.36-.265 1.027 0 .666.034.796.265 1.027a.867.867 0 00.597.264c.21 0 .43-.098.596-.264.231-.23.265-.36.265-1.027 0-.666-.034-.796-.264-1.027a.868.868 0 00-.597-.264.87.87 0 00-.597.264zM7.92 32.352c.068.127.318.442.556.7l.432.468-.418.457a9.68 9.68 0 00-.605.727l-.189.268-.188-.269a9.65 9.65 0 00-.606-.726l-.417-.457.432-.469c.238-.257.488-.572.556-.699.068-.127.168-.23.223-.23.055 0 .156.103.224.23zm39.611 0c.068.127.318.442.556.7l.432.468-.417.457c-.23.252-.503.579-.606.727l-.188.268-.189-.269a9.636 9.636 0 00-.605-.726l-.418-.457.432-.469c.238-.257.488-.572.556-.699.068-.127.169-.23.224-.23.055 0 .155.103.223.23zM5.055 34.625c.776.44 1.425 1.563 1.68 2.913.33 1.737-.26 4.034-1.264 4.914-1.617 1.419-3.568-.31-3.766-3.338-.161-2.456 1.064-4.73 2.548-4.73.207 0 .568.109.802.241zm6.89 0c.775.44 1.424 1.563 1.68 2.913.33 1.737-.262 4.034-1.265 4.914-1.617 1.419-3.568-.31-3.766-3.338-.161-2.456 1.064-4.73 2.548-4.73.207 0 .568.109.802.241zm32.721 0c.776.44 1.425 1.563 1.681 2.913.33 1.737-.262 4.034-1.264 4.914-1.618 1.419-3.569-.31-3.767-3.338-.161-2.456 1.064-4.73 2.548-4.73.207 0 .568.109.802.241zm6.89 0c.775.44 1.424 1.563 1.68 2.913.33 1.737-.262 4.034-1.264 4.914-1.618 1.419-3.569-.31-3.767-3.338-.161-2.456 1.064-4.73 2.548-4.73.207 0 .568.109.802.241zM7.92 42.68c.068.127.318.441.556.699l.432.468-.418.458a9.499 9.499 0 00-.605.726l-.189.269-.188-.27a9.671 9.671 0 00-.606-.725l-.417-.458.432-.468c.238-.258.488-.572.556-.7.068-.126.168-.23.223-.23.055 0 .156.104.224.23zm39.611 0c.068.127.318.441.556.699l.432.468-.417.458c-.23.251-.503.578-.606.726l-.188.269-.189-.27a9.658 9.658 0 00-.605-.725l-.418-.458.432-.468c.238-.258.488-.572.556-.7.068-.126.169-.23.224-.23.055 0 .155.104.223.23zm-14.001.447c-.529.167-1.43 1.1-1.592 1.647-.298 1.009-.087 1.813.673 2.573.558.557 1.103.804 1.78.804s1.222-.247 1.78-.804c1.051-1.05 1.083-2.388.082-3.5-.697-.775-1.703-1.04-2.723-.72zM5.055 44.953c.776.44 1.425 1.564 1.68 2.914.33 1.736-.26 4.033-1.264 4.913-1.617 1.42-3.568-.31-3.766-3.338-.161-2.456 1.064-4.73 2.548-4.73.207 0 .568.11.802.242zm6.89 0c.775.44 1.424 1.564 1.68 2.914.33 1.736-.262 4.033-1.265 4.913-1.617 1.42-3.568-.31-3.766-3.338-.161-2.456 1.064-4.73 2.548-4.73.207 0 .568.11.802.242zm23.044.02a.866.866 0 01.264.597c0 .21-.098.43-.264.596a.867.867 0 01-.597.264.867.867 0 01-.597-.264.866.866 0 01-.264-.596c0-.21.097-.43.264-.597a.868.868 0 01.597-.264c.21 0 .43.098.597.264zm9.677-.02c.776.44 1.425 1.564 1.681 2.914.33 1.736-.262 4.033-1.264 4.913-1.618 1.42-3.569-.31-3.767-3.338-.161-2.456 1.064-4.73 2.548-4.73.207 0 .568.11.802.242zm6.89 0c.775.44 1.424 1.564 1.68 2.914.33 1.736-.262 4.033-1.264 4.913-1.618 1.42-3.569-.31-3.767-3.338-.161-2.456 1.064-4.73 2.548-4.73.207 0 .568.11.802.242z" fill="#746CDE"/><circle cx="34.375" cy="45.625" r="3.125" fill="#F6C243"/><rect x="2.5" width="2.5" height="7.5" rx="1" fill="#F6C243"/><rect y="5" width="2.5" height="7.5" rx="1" transform="rotate(-90 0 5)" fill="#F6C243"/><circle cx="50.625" cy="3.125" r="3.125" fill="#F6C243"/></svg>