<svg width="55" height="55" fill="none" xmlns="http://www.w3.org/2000/svg"><path fill-rule="evenodd" clip-rule="evenodd" d="M51.563.93a119.6 119.6 0 00-2.349.956c-.06.048.549 1.55.654 1.616.052.032.48-.097.952-.288.472-.19.876-.327.897-.305.053.054-4.967 8.199-5.07 8.226-.044.012-.726-.794-1.516-1.792-1.56-1.968-1.832-2.188-2.383-1.924-.231.11-1.55 1.949-4.999 6.971-2.576 3.752-4.749 6.889-4.828 6.971-.12.127-.478-.137-2.325-1.722-3.748-3.216-3.6-3.1-3.99-3.1-.195 0-.435.06-.535.134-.1.074-1.86 2.185-3.914 4.692-2.054 2.506-3.782 4.57-3.842 4.585-.059.015-1.074-1.108-2.255-2.497-2.927-3.44-2.753-3.262-3.199-3.262-.207 0-.472.085-.59.188-.117.103-1.865 3.085-3.883 6.627-2.692 4.723-3.633 6.46-3.531 6.523.076.046.431.252.79.458l.652.374 3.31-5.796c1.82-3.188 3.346-5.796 3.39-5.796.044 0 1.132 1.23 2.42 2.735 1.438 1.68 2.447 2.77 2.618 2.828.153.051.4.064.547.028.189-.046 1.417-1.467 4.14-4.789 2.13-2.598 3.927-4.723 3.995-4.723.069 0 1.386 1.08 2.928 2.401 1.542 1.321 2.948 2.456 3.125 2.523.257.097.38.089.605-.038.17-.096 1.934-2.561 4.455-6.229l4.74-6.891.568-.822 1.532 1.92c1.336 1.673 1.58 1.928 1.902 1.988.253.048.451.017.627-.098.141-.093 1.543-2.259 3.115-4.813l2.858-4.645V6.44H55V.624L54.686.31c-.173-.174-.426-.312-.564-.31-.138.003-1.29.422-2.56.93zm-7.287 15.857c-.23.245-.233.306-.233 3.652v3.404h-.65c-.546 0-.69.042-.913.264-.262.263-.263.27-.263 2.476 0 2.205 0 2.212.264 2.475.221.222.366.264.913.264h.649v9.105l-.643.046c-.486.035-.709.109-.913.3l-.27.254v4.437l.27.254c.204.192.426.265.915.3l.645.047-.03 2.699-.028 2.7-.876.03-.876.032-.037-1.554c-.035-1.463-.052-1.57-.293-1.825-.21-.225-.372-.278-.913-.304l-.657-.032-.028-3.393-.029-3.394-.268-.252c-.203-.19-.427-.264-.916-.299l-.647-.047.03-.873.032-.873.644-.033c.477-.024.707-.092.886-.26.236-.222.242-.283.242-2.453 0-2.7.002-2.695-1.113-2.766l-.713-.045v-1.55c0-1.503-.008-1.558-.264-1.814l-.263-.263h-9.802l-.314.314-.314.314v2.054c0 2.68.052 2.796 1.244 2.796h.582v1.8l-.66.048c-.555.04-.702.095-.914.341-.246.287-.252.342-.252 2.441 0 2.137.001 2.149.264 2.411.221.222.367.264.913.264h.65v6.755l.251.294c.212.246.36.3.914.34l.66.049v1.8h-5.479v-1.8l.662-.048c.554-.04.7-.095.913-.341.246-.287.252-.342.252-2.44 0-2.138-.001-2.15-.264-2.412-.221-.222-.367-.264-.913-.264h-.65v-6.755l-.251-.294c-.212-.246-.36-.3-.914-.34l-.66-.048v-3l-.314-.313-.314-.314h-4.782c-2.907 0-4.891.042-5.062.107-.52.197-.614.664-.574 2.855.034 1.896.043 1.972.29 2.235.212.224.373.278.914.304l.657.031.028 3.394.029 3.393.268.252c.203.19.427.264.916.3l.647.046-.03.873-.032.873-.657.032c-1.04.05-1.102.161-1.139 2.066l-.03 1.554h-1.826l-.03-1.554c-.037-1.905-.098-2.016-1.14-2.066l-.656-.032-.031-.873-.031-.873.647-.047c.49-.035.713-.108.917-.3l.27-.254v-4.437l-.277-.26-.277-.26H2.345l-.26.3c-.248.29-.259.368-.259 1.854v1.551h-.65c-.546 0-.69.042-.912.264C0 42.738 0 42.75 0 44.887c0 2.099.006 2.154.252 2.44.212.247.359.302.913.342l.661.048v1.8h-.582C.052 49.517 0 49.634 0 52.313v2.055l.314.314.314.314h53.744l.314-.314.314-.314V42.74l-.264-.264c-.221-.222-.366-.264-.913-.264h-.65V40.28h.65c.547 0 .692-.042.913-.264l.264-.264V28.125l-.314-.314c-.272-.272-.394-.314-.913-.314h-.6V25.67h.6c.519 0 .641-.042.913-.314l.314-.314v-7.975l-.264-.264-.263-.263H44.51l-.235.248zm8.898 2.49v.914h-7.305v-1.826h7.305v.913zm0 3.653v.913h-7.305v-1.826h7.305v.913zm-1.826 3.652v.914h-7.305v-1.827h7.305v.913zM36.63 30.235v.913h-7.305v-1.826h7.305v.913zm16.543 0v.913h-7.305v-1.826h7.305v.913zm-31.152 3.652v.913h-7.305v-1.826h7.304v.913zm16.435 0v.913h-7.305v-1.826h7.305v.913zm14.717 0v.913h-7.305v-1.826h7.305v.913zM23.848 37.54v.913h-7.305v-1.826h7.305v.913zm12.783 0v.913h-7.305v-1.826h7.305v.913zm16.543 0v.913h-7.305v-1.826h7.305v.913zm-42.217 3.707v.968l-3.625-.028-3.626-.028-.032-.796c-.017-.438-.007-.86.024-.94.044-.117.74-.144 3.657-.144h3.602v.968zm12.837-.001v.913l-3.625.028-3.626.028v-1.94l3.626.03 3.625.028v.913zm14.663.001v.968l-3.626-.028-3.625-.028-.032-.796c-.017-.438-.007-.86.024-.94.044-.117.74-.144 3.657-.144h3.602v.968zm12.837-.001v.913l-3.625.028-3.626.028v-1.94l3.626.03 3.625.028v.913zM9.13 44.952v.913H1.826v-1.826h7.305v.913zm16.543 0v.913h-7.305v-1.826h7.305v.913zm12.783 0v.913h-7.305v-1.826h7.305v.913zm14.717 0v.913h-7.305v-1.826h7.305v.913zm-42.217 3.652v.913H3.652v-1.826h7.305v.913zm12.89 0v.913h-7.304v-1.826h7.305v.913zm16.436 0v.913h-7.305v-1.826h7.305v.913zm12.89 0v.913H45.87v-1.826h7.305v.913zm0 3.652v.913H1.827v-1.826h51.348v.913z" fill="#746CDE"/><path fill-rule="evenodd" clip-rule="evenodd" d="M51.547.93c-1.27.51-2.327.94-2.348.956-.06.048.548 1.55.654 1.616.052.032.48-.097.952-.288.472-.19.876-.327.897-.305.052.054-4.967 8.199-5.07 8.226-.044.012-.726-.794-1.516-1.792-1.56-1.968-1.833-2.188-2.383-1.924-.231.11-1.55 1.949-4.999 6.971-2.577 3.752-4.75 6.889-4.828 6.971-.121.127-.478-.137-2.326-1.722-3.747-3.216-3.599-3.1-3.99-3.1-.194 0-.435.06-.534.134-.1.074-1.86 2.185-3.915 4.692-2.053 2.506-3.782 4.57-3.84 4.585-.06.015-1.075-1.108-2.257-2.497-2.927-3.44-2.752-3.262-3.198-3.262-.207 0-.473.085-.59.188-.117.103-1.865 3.085-3.883 6.627-2.693 4.723-3.633 6.46-3.532 6.523.077.046.432.252.79.458l.652.374 3.31-5.796c1.822-3.188 3.347-5.796 3.39-5.796.044 0 1.133 1.23 2.42 2.735 1.439 1.68 2.448 2.77 2.619 2.828.153.051.399.064.547.028.189-.046 1.417-1.467 4.14-4.789 2.13-2.598 3.927-4.723 3.995-4.723.068 0 1.386 1.08 2.927 2.401 1.542 1.321 2.949 2.456 3.126 2.523.256.097.38.089.604-.038.171-.096 1.934-2.561 4.456-6.229l4.74-6.891.568-.822 1.532 1.92c1.336 1.673 1.58 1.928 1.902 1.988.253.048.451.017.627-.098.14-.093 1.542-2.259 3.114-4.813l2.858-4.645V6.44h1.827V.624L54.67.31c-.174-.174-.426-.312-.564-.31-.138.003-1.29.422-2.56.93z" fill="#F6C243"/></svg>