<svg width="22" height="22" fill="none" xmlns="http://www.w3.org/2000/svg"><path fill-rule="evenodd" clip-rule="evenodd" d="M6.833 5.94c0-2.217 1.852-4.037 4.167-4.037 2.314 0 4.166 1.82 4.166 4.037 0 2.216-1.852 4.037-4.166 4.037-2.315 0-4.167-1.82-4.167-4.037zM11 .903c-2.84 0-5.167 2.242-5.167 5.037S8.16 10.977 11 10.977s5.166-2.242 5.166-5.037S13.84.903 11 .903zM3.333 18.795c0-1.81 1.472-3.28 3.292-3.28h8.75a3.286 3.286 0 013.291 3.28v1.39H3.333v-1.39zm3.292-4.28a4.286 4.286 0 00-4.292 4.28v1.89a.5.5 0 00.5.5h16.333a.5.5 0 00.5-.5v-1.89a4.286 4.286 0 00-4.291-4.28h-8.75z" fill="#353255"/></svg>