<svg width="20" height="20" fill="none" xmlns="http://www.w3.org/2000/svg"><path fill-rule="evenodd" clip-rule="evenodd" d="M9.42 2.005c-1.209.118-2.121.379-3.11.89a7.965 7.965 0 00-3.484 3.55c-.29.586-.426.946-.578 1.52-.19.726-.246 1.166-.248 1.968 0 .4.016.833.038 1.001.17 1.282.574 2.387 1.247 3.421l.224.345-.498 1.47a50.301 50.301 0 00-.49 1.478c.006.006.692-.208 1.525-.474a89.084 89.084 0 011.539-.483c.013 0 .142.072.285.162.144.089.445.25.669.356a8.009 8.009 0 006.415.23 8.072 8.072 0 004.799-5.413c.197-.75.247-1.16.247-2.03 0-.87-.05-1.28-.247-2.03a8.061 8.061 0 00-5.967-5.778 7.575 7.575 0 00-1.613-.183 13.049 13.049 0 00-.752 0zM7.51 5.717a.487.487 0 01.162.17c.093.167.855 1.999.877 2.11.028.141-.11.382-.422.732-.325.365-.395.482-.366.613.053.239.777 1.198 1.224 1.62.692.655 1.74 1.277 2.206 1.31.24.018.327-.05.694-.538.167-.22.344-.443.395-.494.12-.12.3-.146.501-.071.258.096 1.836.863 1.946.946l.106.08-.017.332c-.045.85-.344 1.293-1.135 1.677-.751.365-1.34.355-2.491-.043-1.546-.533-2.366-1.042-3.477-2.16a11.752 11.752 0 01-1.404-1.677c-.744-1.065-1.03-1.887-.945-2.722.068-.67.302-1.163.775-1.636.23-.228.529-.322.98-.307.19.006.33.027.391.058z" fill="#F5F5F5"/></svg>