<svg width="20" height="20" fill="none" xmlns="http://www.w3.org/2000/svg"><g clip-path="url(#clip0_1027_5857)"><path fill-rule="evenodd" clip-rule="evenodd" d="M9.253.028C7.745.175 6.607.501 5.373 1.14A9.938 9.938 0 001.03 5.572c-.361.732-.532 1.181-.72 1.9C.07 8.375.001 8.925 0 9.927c-.001.498.02 1.04.048 1.25.213 1.6.714 2.98 1.554 4.27l.28.431-.622 1.835a62.93 62.93 0 00-.61 1.847c.007.007.862-.26 1.9-.592 1.04-.332 1.903-.604 1.92-.604.017 0 .177.091.356.202.179.112.554.312.833.446a9.973 9.973 0 007.999.286 10.074 10.074 0 005.984-6.759c.246-.935.308-1.448.308-2.534 0-1.086-.062-1.6-.308-2.535a10.058 10.058 0 00-7.44-7.215A9.433 9.433 0 0010.19.028c-.43-.008-.85-.008-.937 0zM6.87 4.664a.608.608 0 01.2.211c.117.209 1.067 2.496 1.095 2.634.035.177-.138.478-.526.915-.405.455-.493.602-.456.766.065.298.968 1.496 1.525 2.023.864.818 2.17 1.594 2.75 1.636.3.021.41-.063.867-.672a9.78 9.78 0 01.492-.617c.15-.15.374-.183.625-.09.321.12 2.288 1.078 2.427 1.182l.132.1-.022.414c-.056 1.063-.429 1.614-1.415 2.094-.937.456-1.67.444-3.106-.053-1.927-.666-2.95-1.302-4.336-2.696a14.666 14.666 0 01-1.75-2.095c-.928-1.33-1.285-2.357-1.179-3.4.085-.835.377-1.452.967-2.042.286-.285.659-.402 1.22-.384.24.008.414.034.49.074z" fill="#F5F5F5"/></g><defs><clipPath id="clip0_1027_5857"><path fill="#fff" d="M0 0h20v20H0z"/></clipPath></defs></svg>