<svg width="35" height="37" fill="none" xmlns="http://www.w3.org/2000/svg"><g clip-path="url(#clip0_1101_20245)"><path fill-rule="evenodd" clip-rule="evenodd" d="M2.368.11c-.412.15-.735.422-.963.808l-.2.34-.02 7.476-.019 7.477.155.358c.17.392.596.82.974.978.2.084 1.081.101 4.998.101h4.755l-3.195 3.189c-3.496 3.487-3.505 3.5-3.505 4.304 0 .834-.167.644 5.494 6.275 3.47 3.452 5.28 5.204 5.474 5.296.412.196 1.202.184 1.59-.023.432-.23 15.183-14.967 15.326-15.31.22-.53.157-.856-.898-4.667l-1.008-3.639 1.729-1.729c1.127-1.127 1.767-1.822 1.84-1.997.305-.736-.084-1.654-.825-1.944-.114-.044-1.194-.068-2.8-.06l-2.614.01-1.86-3.264C25.773 2.294 24.835.717 24.71.585a2.421 2.421 0 00-.514-.397c-.27-.145-.407-.157-2.03-.178-1.423-.018-1.723-.015-1.884.073a.432.432 0 00-.064.044c-.238.192-.204.626.03.815a.54.54 0 00.02.015c.148.11.353.12 1.766.12h1.617l.208.198c.172.163 3.3 5.558 3.451 5.952.042.107-.057.118-.996.118h-1.042l-.239-.246c-.131-.135-.435-.333-.674-.44-1.28-.572-2.821.121-3.235 1.455-.08.26-.146.576-.146.703 0 .193-.041.25-.254.352-.14.066-.525.38-.856.697-.331.317-.624.555-.65.529-.026-.026-.047-.301-.047-.61 0-.521-.016-.582-.211-.8-.204-.226-.23-.235-.765-.235s-.562.009-.766.236c-.206.23-.21.25-.21 1.059 0 1.088.11 1.31.715 1.442l.244.053-2.522 2.514-2.522 2.514H2.675l-.21-.211-.212-.21v-7.25c0-7.877-.017-7.546.396-7.734.143-.065 2.111-.086 8.057-.086 6.907 0 9.024-.015 9.563-.12a.355.355 0 00.14-.048.486.486 0 000-.782.315.315 0 00-.126-.044c-.514-.101-2.612-.086-9.67-.081-6.721.004-8.006.02-8.245.108zM17.15 7.147c-.271.565-.854 1.771-1.295 2.681-.723 1.49-.793 1.669-.705 1.801.119.179.354.226.464.093.145-.173 2.546-5.177 2.546-5.305 0-.173-.144-.296-.346-.296-.149 0-.235.132-.664 1.026zm-2.65-.635c-.4.173-.462.341-.462 1.241 0 .935.054 1.123.378 1.326.19.119.327.142.698.122.413-.024.484-.05.67-.258.204-.228.206-.244.206-1.114 0-.7-.024-.919-.117-1.051-.239-.34-.906-.468-1.374-.266zm-8.44.068c-.618.173-1.082.852-.907 1.325.072.193.377.278.614.17.18-.081.202-.116.275-.452.044-.2.331-.35.672-.35.293 0 .528.304.528.682 0 .389-.183.615-.497.615-.269 0-.386.147-.358.446.02.194.057.243.204.259.632.07.796.228.796.768 0 .554-.202.784-.697.791-.424.007-.749-.17-.75-.41-.002-.244-.095-.342-.369-.386-.374-.06-.607.15-.543.493.13.694.741 1.102 1.636 1.094 1.122-.01 1.749-.678 1.639-1.745-.043-.416-.297-.832-.559-.915-.145-.046-.144-.05.033-.227.25-.25.354-.612.318-1.113-.036-.493-.197-.759-.574-.946-.348-.173-1.031-.22-1.462-.099zm3.746.033c-.37.171-.657.51-.761.893-.051.189-.071.805-.055 1.672.024 1.25.04 1.4.186 1.674.271.51.742.744 1.498.744.628 0 1.164-.274 1.409-.719.152-.278.181-.439.205-1.153a16.23 16.23 0 00-.04-1.602c-.078-.894-.245-1.236-.716-1.466-.408-.198-1.342-.222-1.726-.043zm5.445.412c.148.103.161.17.161.826 0 .632-.016.723-.14.789-.456.243-.655-.024-.655-.874 0-.568.015-.64.16-.74.089-.062.195-.113.237-.113.042 0 .149.05.237.112zm-4.239.326c.286.153.351.486.351 1.799v1.233l-.211.21c-.166.165-.276.21-.512.21-.235 0-.346-.045-.512-.21l-.21-.21V9.005c0-1.367 0-1.38.177-1.555.194-.194.648-.243.917-.099zm12.662.21c.146 0 .145.008-.034.199-.31.329-.443.667-.443 1.121 0 .475.065.456-.754.225-.339-.096-.38-.128-.378-.304.004-.477.492-1.116.926-1.21.107-.024.226-.054.266-.067a.327.327 0 01.168.006c.053.017.165.03.249.03zm10.103.937c.08.08.144.217.144.307 0 .118-.855 1.014-3.127 3.278-2.562 2.553-3.162 3.116-3.32 3.116-.235 0-.421-.17-.421-.385 0-.193 6.261-6.46 6.454-6.46.069 0 .19.065.27.144zm-2.436.364l-.447.433-3.192-.02-3.193-.02-.14-.172c-.153-.19-.127-.416.066-.567.088-.07.946-.09 3.734-.088h3.62l-.448.434zm-12.888.431c.124.066.14.157.14.784 0 .775-.052.889-.41.889-.304 0-.385-.187-.385-.891 0-.477.028-.657.114-.743.13-.13.34-.146.541-.039zm6.492 1.623c1.814.498 3.313.92 3.331.94.02.018-.285.352-.674.742l-.71.71-.495.034a2.446 2.446 0 00-2.043 1.412c-.238.515-.222 1.423.034 1.969.392.832 1.09 1.288 2.05 1.34.476.026.655.003 1.01-.13.856-.322 1.484-1.214 1.484-2.108v-.377l.751-.745.751-.746.077.243c.32 1.003 1.747 6.358 1.747 6.553 0 .229-.48.724-7.429 7.648-7.369 7.343-7.432 7.403-7.717 7.403-.285 0-.345-.056-5.486-5.178-5.165-5.146-5.197-5.18-5.205-5.477l-.008-.299 7.447-7.42c5.686-5.665 7.486-7.419 7.617-7.419.094 0 1.655.408 3.468.905zm4.589-.245l-.3.299-.35-.094c-.467-.126-.464-.124-.371-.327.077-.169.112-.178.701-.178h.62l-.3.3zm-3.34 4.94c.236.38.738.668 1.162.668.378 0 .404.031.234.274-.276.392-1.155.581-1.607.345-.263-.136-.567-.465-.661-.713-.183-.482.004-1.173.402-1.485l.208-.163.052.41c.03.225.124.524.21.663z" fill="#353255"/><path d="M20.283.083a.432.432 0 00-.064.044c-.238.192-.204.626.03.815a.54.54 0 00.02.015.355.355 0 00.14-.048.486.486 0 000-.782.315.315 0 00-.126-.044z" fill="#353255"/><path d="M13.512 25.225l.72.747-1.567 1.487.5.548.72-.527a2.1 2.1 0 01.699-.381 1.429 1.429 0 011.176.136c.172.1.335.224.49.37.168.16.305.332.412.517.106.184.163.38.17.59.011.205-.04.424-.154.657-.114.226-.306.468-.577.725-.19.181-.412.374-.665.58-.25.201-.513.4-.792.594l-.676-.819.56-.47c.184-.153.341-.292.473-.417.169-.16.283-.296.341-.407a.445.445 0 00.044-.313.746.746 0 00-.192-.298.621.621 0 00-.248-.182.393.393 0 00-.252-.021.792.792 0 00-.292.13c-.102.07-.223.16-.363.272l-.665.495a.483.483 0 01-.324.1.461.461 0 01-.303-.141l-1.61-1.717 2.375-2.255zm1.993-2.038c.384-.365.753-.596 1.105-.694.348-.1.716-.06 1.105.12.384.178.824.501 1.319.97.495.47.837.89 1.028 1.259.187.365.229.715.126 1.049-.106.33-.351.678-.736 1.043-.381.362-.746.593-1.094.694-.352.098-.72.058-1.105-.12-.385-.184-.825-.511-1.32-.98-.494-.47-.837-.886-1.028-1.248-.19-.369-.232-.719-.126-1.049.103-.334.345-.682.726-1.044zm.775.746a.808.808 0 00-.21.293.425.425 0 00.012.313c.044.111.137.249.28.412a9.5 9.5 0 00.594.605c.253.24.465.428.638.564.172.136.318.226.44.271.12.039.23.042.33.01a.946.946 0 00.302-.203.92.92 0 00.22-.292.455.455 0 00-.006-.318 1.477 1.477 0 00-.28-.423 7.589 7.589 0 00-.589-.61 7.722 7.722 0 00-.643-.559 1.495 1.495 0 00-.44-.26.485.485 0 00-.335-.006.877.877 0 00-.313.203zm3.3-4.614c.242-.23.47-.38.682-.45a.91.91 0 01.66.042c.223.094.48.279.77.554.285.27.48.515.582.73a.785.785 0 01.044.626c-.073.202-.231.418-.473.647-.238.227-.463.375-.676.444a.915.915 0 01-.654-.047c-.227-.097-.484-.282-.77-.553-.29-.275-.484-.518-.583-.73a.79.79 0 01-.05-.622c.074-.201.23-.415.468-.642zm.533.506c-.066.062-.102.121-.11.177-.007.056.026.132.1.23.073.09.197.219.373.386s.314.287.413.36c.099.066.177.096.236.089a.344.344 0 00.187-.105c.066-.062.102-.122.11-.177.01-.06-.018-.136-.088-.23a3.574 3.574 0 00-.374-.396 3.477 3.477 0 00-.412-.35c-.103-.07-.185-.1-.248-.089a.343.343 0 00-.187.105zm2.326-3.074l1.622 5.662-.61.58-1.622-5.663.61-.579zm1.605 1.524c.242-.23.47-.38.682-.449a.91.91 0 01.66.042c.223.094.478.276.764.548.285.271.48.515.582.73a.784.784 0 01.044.627c-.073.201-.23.417-.473.647-.238.226-.463.374-.676.443a.916.916 0 01-.654-.047c-.227-.097-.484-.282-.77-.553-.285-.271-.478-.513-.577-.725a.79.79 0 01-.05-.621c.074-.202.23-.416.468-.642zm.528.5c-.066.063-.103.123-.11.178-.008.056.024.13.093.225.074.09.2.22.38.391.175.167.313.287.412.36.099.066.18.097.242.094a.344.344 0 00.187-.104c.066-.063.102-.122.11-.178.007-.063-.024-.14-.094-.235a3.58 3.58 0 00-.374-.396 3.564 3.564 0 00-.417-.355c-.1-.066-.18-.094-.242-.084a.343.343 0 00-.187.105z" fill="#FF902D"/><path fill="#FF902D" fill-opacity=".5" d="M2.175 1.117h2.241v15.634H2.175z"/></g><defs><clipPath id="clip0_1101_20245"><path fill="#fff" d="M0 0h35v37H0z"/></clipPath></defs></svg>