<svg width="35" height="35" fill="none" xmlns="http://www.w3.org/2000/svg"><path fill-rule="evenodd" clip-rule="evenodd" d="M9.856.022C5.006.542 1.121 4.097.164 8.89c-.218 1.093-.219 2.967-.002 4.051.257 1.287.71 2.487 1.337 3.543a11.052 11.052 0 006.258 4.906c.295.09.489.183.472.229-.016.042-.192.742-.393 1.554-.519 2.096-.507 2.114 1.298 2.114h1.098v4.58c0 3.405.021 4.625.082 4.759.09.196.376.374.602.374.226 0 .513-.178.602-.374.061-.134.082-1.354.082-4.76v-4.579h1.098c1.231 0 1.42-.05 1.573-.418.083-.2.06-.346-.274-1.696a91.84 91.84 0 00-.392-1.55c-.015-.041.105-.113.267-.161.161-.048.626-.21 1.033-.363l.74-.275.341.383c.422.474 1.492 1.34 2.196 1.78.659.41 1.67.869 2.461 1.115.333.104.593.22.58.26-.015.038-.19.735-.391 1.547-.519 2.096-.507 2.114 1.298 2.114h1.098v3.212c0 3.449.004 3.487.352 3.668a.642.642 0 00.664 0c.348-.18.352-.22.352-3.668v-3.212h1.098c1.23 0 1.42-.05 1.573-.418.083-.2.06-.346-.274-1.696a89.936 89.936 0 00-.391-1.547c-.014-.039.29-.174.677-.3a10.65 10.65 0 004.306-2.624c1.585-1.56 2.635-3.522 3.082-5.76.216-1.085.215-2.96-.003-4.052C33.313 4.858 26.23.96 19.894 3.496c-.339.135-.648.245-.687.245-.04 0-.165-.118-.28-.263-.294-.371-1.279-1.204-1.974-1.67C15.804 1.04 14.412.47 12.968.179c-.637-.13-2.496-.222-3.112-.156zm2.989 1.53c1.909.4 3.388 1.21 4.81 2.632.882.883 1.312 1.47 1.83 2.499.688 1.364.968 2.592.968 4.24 0 2.042-.5 3.693-1.635 5.404-.438.66-1.838 2.06-2.498 2.498-1.712 1.136-3.362 1.635-5.404 1.635-1.648 0-2.876-.28-4.24-.967-1.02-.514-1.612-.948-2.5-1.832-1.425-1.422-2.22-2.88-2.643-4.844-.214-.997-.214-2.79 0-3.788C1.932 7.176 2.72 5.68 4 4.342c.733-.766 1.348-1.25 2.23-1.756A9.904 9.904 0 019.7 1.423c.75-.102 2.366-.036 3.146.128zM25.84 4.286c1.909.402 3.388 1.211 4.81 2.633.882.883 1.312 1.47 1.83 2.499.688 1.364.968 2.592.968 4.24 0 2.042-.5 3.693-1.635 5.404-.438.66-1.838 2.06-2.498 2.498a10.242 10.242 0 01-3.662 1.513c-.916.183-2.705.167-3.636-.032-1.855-.398-3.561-1.302-4.758-2.523l-.394-.401.559-.408c.307-.224.839-.685 1.18-1.025 1.598-1.586 2.618-3.497 3.065-5.744.217-1.085.217-2.966.002-4.037a11.396 11.396 0 00-1.262-3.405c-.189-.332-.332-.613-.319-.626.014-.013.287-.115.606-.227a10.898 10.898 0 012.052-.493c.695-.097 2.33-.026 3.092.134zM12.49 22.757c.125.507.24.977.258 1.043.029.111-.092.12-1.832.12s-1.86-.009-1.831-.12c.017-.066.133-.536.257-1.044l.227-.923h2.695l.226.924zm12.996 2.735c.125.508.24.978.258 1.043.029.112-.092.12-1.832.12s-1.86-.008-1.831-.12c.017-.065.133-.535.257-1.043l.227-.923h2.694l.227.924z" fill="#353255"/><path d="M10.272 4.97a.2.2 0 01.352 0l1.823 3.386a.2.2 0 00.15.103l4.045.54a.2.2 0 01.106.347l-2.904 2.594a.2.2 0 00-.063.186l.689 3.68a.2.2 0 01-.284.217l-3.651-1.76a.2.2 0 00-.174 0l-3.651 1.76a.2.2 0 01-.284-.217l.689-3.68a.2.2 0 00-.063-.186L4.148 9.346a.2.2 0 01.107-.348L8.3 8.46a.2.2 0 00.15-.103l1.822-3.385z" fill="#5DE87A"/><path opacity=".5" d="M33.706 11.243C34.999 20.5 26.783 23 26.5 23c-.283 0 3.432-5.349 3.432-9.874 0-4.526-2.844-8.195-2.561-8.195.283 0 5.31 1.703 6.335 6.312z" fill="#5DE87A"/></svg>