<svg width="35" height="35" fill="none" xmlns="http://www.w3.org/2000/svg"><g clip-path="url(#clip0_1101_20342)"><path fill-rule="evenodd" clip-rule="evenodd" d="M6.165 34.312h-.007l.015.03a1.14 1.14 0 00-.008-.03zm12.308-28.3c.89-.671 2.245-1.212 3.393-1.355.672-.084.943-.086 1.608-.01a7.118 7.118 0 014.31 2.07c.51.507.693.797.636 1.013-.044.168-.221.317-.443.372-.165.041-.263-.03-.928-.661-.844-.803-1.438-1.174-2.38-1.488-2.292-.763-4.73-.145-6.415 1.627-.432.455-.54.52-.803.491-.16-.018-.41-.336-.41-.52 0-.208.787-1.054 1.432-1.54zm-2.73 3.649a.728.728 0 01.184-.278c.078-.06.415-.086 1.092-.086.888 0 .992.013 1.117.137a.514.514 0 01-.044.747c-.152.12-.277.142-.787.142h-.607v.888h.582c.678 0 .855.106.855.508 0 .38-.239.518-.899.518h-.538v.844c0 .887-.029.975-.357 1.091-.212.075-.517-.084-.596-.31-.098-.28-.1-3.94-.002-4.201zm3.556 2.11c0-2.035.005-2.12.142-2.294.14-.177.155-.18.975-.178.943.001 1.22.086 1.6.486.67.706.528 1.789-.301 2.286l-.35.21.54.63c.596.692.652.863.374 1.14-.348.349-.51.254-1.524-.891l-.424-.479-.003.602c-.002.545-.018.617-.17.769-.093.092-.248.168-.346.168-.097 0-.253-.076-.345-.168l-.168-.168v-2.113zm4.175-2.19l.18-.142c.164-.129.273-.142 1.164-.142.892 0 .996.013 1.12.137.183.183.177.53-.012.73-.135.144-.209.159-.787.159H24.5v.875l.575.024c.68.028.863.139.863.525 0 .409-.138.49-.832.49H24.5v.957h.65c.56 0 .67.02.788.137a.514.514 0 01-.044.747c-.162.128-.273.142-1.12.142-.847 0-.957-.014-1.12-.142l-.18-.142V9.581zm3.627.052l.168-.168c.163-.163.198-.168 1.167-.168.98 0 1.002.003 1.174.176.142.141.168.217.134.393-.073.376-.246.457-.974.457h-.642v.872l.625.03c.55.026.641.049.753.187a.561.561 0 01.03.658c-.08.11-.206.139-.735.167l-.639.034-.02.462-.02.461h.682c.662 0 .687.006.83.187a.511.511 0 01-.077.72c-.122.1-.292.119-1.132.119-.958 0-.993-.005-1.156-.168l-.168-.168V9.633zm-6.398 1.701c.64-.053.917-.477.55-.843-.138-.138-.236-.168-.548-.168h-.38v1.042l.378-.031zm-3.626 4.738a.48.48 0 01.221-.583.882.882 0 01.31-.104c.068-.002.376.253.685.567 1.272 1.291 2.711 1.912 4.428 1.91 1.763 0 3.149-.589 4.458-1.892.326-.323.627-.588.671-.588.142 0 .465.197.51.31.093.246.027.447-.266.807-.47.577-1.343 1.234-2.19 1.652-2.331 1.148-5.038.955-7.23-.515-.503-.339-1.526-1.34-1.597-1.564zM3.06 27.605a.919.919 0 01.223-.142c.056-.022 1.834-.033 3.95-.027l3.848.013.156.156c.154.153.156.18.176 2.104l.02 1.95-.203.202-.203.203H7.165c-3.804 0-3.865-.002-4.043-.142l-.18-.141v-2.036c0-1.853.01-2.045.12-2.14zm7.344 3.435l-.019-1.283-.019-1.282-3.201-.018c-2.57-.014-3.208 0-3.236.07-.018.05-.025.627-.015 1.283l.019 1.194 3.235.018 3.236.018z" fill="#353255"/><path fill-rule="evenodd" clip-rule="evenodd" d="M18.77.142c-.559.277-.786.635-1.286 2.032-.556 1.553-.56 1.556-2.363 1.648-1.45.074-1.796.162-2.193.559-.504.503-.52 1.193-.065 2.751.152.52.276 1.08.276 1.243 0 .385-.158.572-1.09 1.289-1.243.956-1.595 1.417-1.595 2.095 0 .617.291 1.04 1.25 1.813l.55.443-5.598.003c-5.916.003-5.91.002-6.26.315-.079.07-.2.25-.269.4-.12.26-.125.702-.127 9.811 0 9.162.004 9.549.126 9.776.07.13.242.33.382.444l.256.207 1.405.02c1.374.021 3.756.163 3.915.014l.112-.264.007-.084a1.199 1.199 0 00-.03-.314c-.098.12-.058-.015-.015-.03l-.149-.3c-.117-.1-2.582-.005-3.668-.034l-1.282-.034-.017-9.396c-.014-7.472 0-9.408.069-9.451.047-.03 1.448-.055 3.114-.056h3.028v9.29l.16.186c.108.124.227.186.36.185.126-.001.72-.294 1.614-.798a50.95 50.95 0 011.522-.838c.065-.025.687.286 1.596.797.917.516 1.564.839 1.682.84a.554.554 0 00.342-.15c.148-.148.15-.184.17-2.507l.02-2.357.493.002c.272 0 .71.031.973.068.736.103.822.225 1.504 2.141.568 1.595 1.507 1.994 2.843 1.207.191-.113.361-.204.379-.204.017 0 .023 2.484.014 5.52l-.018 5.521-7.449.034-7.449.035c.068.057.122.169.156.299.03 0 .059.071.038.344a.916.916 0 01-.007.084.44.44 0 01-.112.264l7.446-.002c7.078-.001 7.46-.007 7.72-.127.325-.15.471-.302.613-.64.092-.22.105-.999.105-6.167v-5.915l.271-.138c.53-.27.856-.165 2.04.66 1.458 1.014 2.2 1.087 2.919.288.294-.327.607-1.005.957-2.077.18-.55.396-.878.666-1.01.192-.094.531-.135 1.506-.181 1.68-.08 2.138-.252 2.472-.929.253-.513.214-.981-.2-2.393-.284-.972-.319-1.42-.13-1.698.072-.107.52-.496.995-.864 1.304-1.01 1.536-1.32 1.54-2.053.004-.738-.268-1.084-1.753-2.234-1.07-.828-1.082-.873-.637-2.415.33-1.146.396-1.578.306-2.008-.127-.615-.63-1.071-1.298-1.178-.216-.035-.295-.023-.413.078l-.038.035c-.17.16-.225.486-.11.666.03.048.206.144.392.214.596.224.607.37.149 1.988-.424 1.5-.384 2.04.2 2.721.106.125.577.524 1.046.89.828.643 1.166 1.003 1.166 1.243 0 .237-.332.594-1.11 1.195-1.011.781-1.158.924-1.393 1.355-.276.508-.26 1.109.063 2.202.608 2.065.603 2.073-1.305 2.16-1.373.062-1.873.176-2.269.514-.365.312-.553.655-.93 1.697-.522 1.44-.675 1.661-1.092 1.583-.132-.025-.624-.304-1.094-.62-1.135-.765-1.483-.935-1.998-.976-.606-.049-.972.099-2.089.843-1.047.698-1.384.847-1.625.718-.187-.1-.413-.547-.716-1.41-.307-.878-.37-1.017-.65-1.451-.25-.387-.608-.637-1.09-.764-.159-.042-.846-.102-1.527-.133-1.075-.05-1.263-.075-1.422-.193-.285-.212-.273-.566.057-1.694.346-1.182.412-1.814.238-2.27-.155-.404-.589-.874-1.3-1.407-.675-.508-1.108-.914-1.238-1.16-.087-.164-.087-.213 0-.377.127-.242.545-.633 1.273-1.192 1.485-1.14 1.62-1.617 1.03-3.636-.263-.9-.337-1.42-.225-1.588.129-.192.438-.254 1.552-.31.642-.031 1.316-.088 1.496-.127.875-.184 1.258-.654 1.793-2.197.325-.937.566-1.372.805-1.456.24-.084.6.083 1.454.676 1.279.89 1.942 1.084 2.705.796.208-.078.82-.434 1.36-.791.54-.357 1.087-.669 1.216-.693.404-.076.585.181 1.055 1.492.49 1.368.813 1.824 1.463 2.072.31.119.323.118.499-.013.33-.245.34-.587.066-.813a.869.869 0 00-.22-.129c-.27-.113-.44-.36-.655-.956-.53-1.462-.696-1.82-.993-2.151-.38-.422-.777-.59-1.255-.534-.42.05-.887.282-1.697.844-.779.54-1.24.776-1.52.776-.278 0-.53-.134-1.606-.85-1.196-.795-1.746-.947-2.35-.648zm-5.906 16.243c.151-.52.275-1.036.275-1.145v-.2H8.28v4.137c0 2.274.016 4.136.035 4.136.019 0 .504-.266 1.078-.592 1.439-.816 1.533-.855 1.792-.747.115.048.709.369 1.32.713.611.344 1.127.626 1.146.626.02 0 .036-.84.036-1.867v-1.867l-.279-.123c-.399-.176-.71-.515-.814-.889-.13-.459-.053-1.077.27-2.182z" fill="#353255"/><path d="M31.17 4.036a.588.588 0 01.04-.035c-1.023.154-1.757-.027-2.145-.211.274.226.264.568-.065.813-.176.131-.19.132-.5.013.061.465 1.732.25 2.56.086-.114-.18-.06-.506.11-.666z" fill="#353255"/><path fill-rule="evenodd" clip-rule="evenodd" d="M15.927 9.383a.726.726 0 00-.184.278c-.097.262-.096 3.922.002 4.202.079.226.384.384.596.31.328-.117.357-.204.357-1.092v-.844h.538c.66 0 .9-.138.9-.518 0-.402-.178-.507-.856-.507h-.582v-.889h.607c.51 0 .635-.023.787-.142a.514.514 0 00.043-.747c-.124-.124-.228-.137-1.116-.137-.677 0-1.014.027-1.092.086zm3.514.095c-.137.173-.142.258-.142 2.293v2.113l.168.168c.092.092.248.168.345.168.098 0 .253-.076.345-.168.153-.152.169-.223.171-.77l.003-.6.424.478c1.014 1.145 1.176 1.24 1.524.892.278-.277.222-.449-.373-1.14l-.542-.63.35-.21c.83-.498.973-1.581.302-2.287-.38-.4-.657-.484-1.6-.486-.82-.002-.836.001-.975.179zm4.213-.039l-.18.142v4.356l.18.141c.163.128.273.142 1.12.142.847 0 .958-.014 1.12-.142a.514.514 0 00.044-.747c-.118-.117-.228-.137-.787-.137h-.65v-.957h.605c.694 0 .832-.08.832-.49 0-.386-.182-.497-.863-.525l-.575-.024v-.875h.639c.578 0 .652-.015.787-.158.19-.202.195-.548.012-.73-.124-.125-.228-.138-1.12-.138-.891 0-1 .014-1.164.142zm3.615.026l-.168.168v4.251l.168.168c.163.163.198.168 1.156.168.84 0 1.01-.018 1.132-.12a.512.512 0 00.077-.719c-.143-.181-.168-.187-.83-.187h-.682l.02-.461.02-.462.639-.034c.529-.028.655-.057.736-.167a.561.561 0 00-.03-.658c-.113-.138-.203-.16-.754-.187l-.625-.03v-.872h.642c.728 0 .901-.081.974-.457.034-.176.008-.252-.134-.393-.172-.172-.193-.176-1.174-.176-.97 0-1.004.005-1.167.168zm-6.016 1.026c.367.366.09.79-.55.843l-.377.031v-1.042h.38c.31 0 .409.03.547.168z" fill="#FC79C8"/><path fill="#FC79C8" fill-opacity=".5" d="M.554 15.055h3.51V34.45H.554z"/></g><defs><clipPath id="clip0_1101_20342"><path fill="#fff" d="M0 0h35v35H0z"/></clipPath></defs></svg>