<svg width="35" height="35" fill="none" xmlns="http://www.w3.org/2000/svg"><path fill-rule="evenodd" clip-rule="evenodd" d="M29.252.043c-.981.177-1.822.631-2.592 1.4-.626.625-.985 1.198-1.246 1.984-.16.484-.18.656-.18 1.471 0 .816.02.988.18 1.471.26.786.62 1.36 1.246 1.984.625.626 1.199.985 1.985 1.245.483.16.656.181 1.471.181.816 0 .989-.02 1.472-.18.786-.26 1.36-.62 1.985-1.246.626-.625.986-1.198 1.246-1.984.16-.483.181-.655.181-1.47 0-.816-.021-.988-.181-1.472-.26-.786-.62-1.359-1.246-1.984C32.618.49 31.632.053 30.322.005c-.395-.014-.877.003-1.07.038zM30.84 1.14c.675.122 1.442.536 1.971 1.065a3.786 3.786 0 01-.004 5.394c-1.5 1.499-3.886 1.491-5.395-.017-1.845-1.844-1.33-4.943 1.014-6.096.81-.398 1.541-.503 2.414-.346zm-.289 3.087l-.979.97-.44-.423c-.349-.335-.486-.423-.655-.423-.29 0-.55.264-.55.558 0 .19.1.322.704.926.994.993.854 1.025 2.425-.545 1.111-1.112 1.25-1.276 1.25-1.474a.572.572 0 00-.555-.56c-.192 0-.348.126-1.2.97zm-23.98.213c-.336.106-.909.7-1.012 1.048-.12.407-.12 17.022 0 17.43.111.375.678.942 1.054 1.053.409.12 23.6.12 24.009 0 .376-.111.943-.678 1.054-1.054.063-.212.083-1.763.083-6.246v-5.964l-.168-.168a.516.516 0 00-.759 0l-.168.168v11.917l-.168.167-.168.168H14.237V5.446h5.476v5.137l.168.168c.092.092.246.168.343.168.096 0 .636-.232 1.2-.514l1.027-.513 1.025.513c.565.283 1.105.514 1.201.514.097 0 .25-.076.343-.168.164-.164.168-.196.168-1.2 0-1.006-.004-1.037-.168-1.2a.551.551 0 00-.38-.169.552.552 0 00-.379.168c-.146.147-.168.23-.168.65v.483l-.752-.377c-.413-.207-.814-.377-.89-.377-.077 0-.478.17-.892.377l-.751.377V5.446h1.474c1.475 0 1.475 0 1.643-.168a.551.551 0 00.168-.38.551.551 0 00-.168-.38l-.168-.167-8.473.007c-5.969.005-8.544.03-8.713.082zm6.57 9.762v8.757H6.908l-.168-.168-.168-.168V5.782l.168-.167.168-.168h6.234v8.757zM4.37 25.279a3.76 3.76 0 00-.65.285C3.394 25.76.23 28.876.097 29.13a.877.877 0 00-.097.328c0 .222.3.48.557.48.198 0 .406-.184 1.937-1.703.943-.936 1.823-1.76 1.955-1.83.226-.12.461-.128 4.119-.128 3.811 0 3.883.003 4.068.141.36.268.472.487.472.92 0 .432-.112.65-.472.92-.177.132-.304.142-2.175.174-1.986.035-1.986.035-2.117.196a.534.534 0 00.038.731l.168.168h9.715l.33-.25c.182-.138.762-.607 1.289-1.043.527-.436 1.094-.862 1.26-.947 1.045-.534 2.176.488 1.757 1.586-.095.247-.382.547-1.588 1.658-.81.746-1.602 1.433-1.76 1.527l-.285.171-6.098.035-6.097.034-.782.694c-1.362 1.211-1.363 1.212-1.363 1.453 0 .287.263.555.544.555.167 0 .369-.141 1.016-.71.444-.392.848-.761.898-.822.083-.1.645-.11 5.887-.11 6.277 0 6.245.002 6.884-.373.432-.252 3.257-2.883 3.537-3.292.598-.876.506-2.066-.223-2.862a2.761 2.761 0 00-.734-.568c-.338-.166-.47-.19-1.005-.19-.843 0-1.091.13-2.594 1.358l-1.225 1.001h-1.975c-1.086 0-1.975-.016-1.975-.037 0-.02.053-.136.118-.257.084-.158.117-.381.117-.8 0-.496-.028-.634-.183-.931-.267-.515-.475-.73-.955-.99l-.432-.234-3.935-.015c-3.652-.014-3.964-.006-4.324.11z" fill="#353255"/><path d="M20.125 11.24V4.576c0-.11.09-.2.2-.2h4.85c.11 0 .2.09.2.2v7.244a.2.2 0 01-.33.152l-2.411-2.04a.2.2 0 00-.25-.007L20.446 11.4a.2.2 0 01-.321-.16z" fill="#FFBCE9" stroke="#FFBCE9"/><path fill="#FFBCE9" fill-opacity=".5" d="M6 19h25v4H6z"/></svg>