<svg width="35" height="35" fill="none" xmlns="http://www.w3.org/2000/svg"><path fill-rule="evenodd" clip-rule="evenodd" d="M11.284.027c-.055.011-.324.056-.598.1C9.81.27 8.38.85 7.946 1.237c-.152.137-.149.494.006.685.179.22.438.187.974-.125 1.901-1.109 4.5-1.035 6.358.18.51.334 1.248.974 1.248 1.081 0 .035-.12.262-.266.504-.512.849-.89 2.072-.97 3.142l-.043.569-.473.152c-.585.189-1.418.602-1.896.94l-.36.255-.371-.34C11.058 7.278 9.797 6.64 8.436 6.4c-.605-.105-1.86-.125-2.324-.035l-.29.056.044-.33c.071-.54.395-1.406.762-2.042.266-.46.333-.633.3-.766-.097-.386-.585-.49-.868-.185-.439.472-1.22 2.484-1.22 3.143 0 .255-.11.527-.215.527-.162 0-1.058.465-1.547.803-.572.395-1.483 1.322-1.856 1.887-1.598 2.42-1.628 5.05-.093 8.134 1.64 3.294 4.339 5.812 6.591 6.15l.29.044-.256.728c-.28.796-.314 1.143-.146 1.497.216.455.857.716 1.304.53l.24-.1.069.343c.038.19.34 1.764.67 3.5.33 1.735.633 3.254.671 3.375.166.517.921.396.921-.147 0-.119-.298-1.775-.664-3.68a338.215 338.215 0 01-.664-3.518c0-.028.113-.055.252-.058.753-.02 1.29-.85.976-1.512-.063-.133-.341-.501-.618-.817l-.502-.575.16-.105a6.25 6.25 0 001.381-1.217c.44-.525.442-.526.542-.375.055.084.283.378.505.654.739.915 1.584 1.602 2.473 2.012.244.113.455.213.468.223.013.01-.08.192-.209.404-.494.822-.595 1.083-.565 1.45.036.433.226.706.622.898.227.11.367.136.564.105l.261-.042v3.006c.001 1.904.027 3.1.071 3.26.05.175.123.272.244.318.226.086.533.016.616-.14.041-.077.066-1.322.066-3.287v-3.164l.296.045c.233.035.361.013.598-.101.394-.192.584-.466.62-.897.03-.368-.072-.63-.566-1.45-.127-.213-.221-.396-.208-.408.013-.013.222-.112.465-.221.94-.425 1.887-1.224 2.648-2.236l.431-.575.263.319c.42.509.924.986 1.325 1.252.205.136.372.265.372.288 0 .022-.183.25-.406.505-.223.256-.48.575-.57.71-.446.663.04 1.634.835 1.665.15.006.274.037.274.068 0 .03-.299 1.611-.664 3.512-.366 1.901-.665 3.556-.665 3.678 0 .16.049.26.175.36.307.24.633.15.747-.211.038-.12.357-1.726.708-3.571.351-1.845.653-3.417.671-3.494.032-.132.046-.134.319-.044.663.218 1.433-.334 1.432-1.027 0-.101-.119-.527-.264-.945-.145-.418-.256-.764-.248-.769.008-.004.268-.074.579-.154 1.077-.28 2.238-.982 3.333-2.016.495-.467.595-.693.424-.955-.14-.213-.355-.295-.565-.216-.09.033-.403.292-.697.574-.901.864-1.936 1.475-2.836 1.674-.56.123-1.403.056-1.851-.148-.546-.249-1.124-.717-1.558-1.261-.575-.722-.567-.648-.15-1.52 1.305-2.725 1.734-5.317 1.214-7.334-.206-.799-.7-1.825-1.18-2.453a98.1 98.1 0 01-.44-.577c-.08-.106-.05-.157.265-.46.695-.667 1.611-1.182 2.627-1.476.448-.13.665-.15 1.613-.146.995.003 1.15.02 1.68.183 1.801.552 3.168 1.73 3.935 3.389.98 2.123.646 4.509-1.02 7.266-.504.834-.519 1.046-.088 1.275.287.153.482-.004.928-.745 1.88-3.13 2.22-5.846 1.044-8.303-.68-1.42-1.924-2.687-3.33-3.39l-.339-.17-.042-.452c-.137-1.47-.846-2.98-1.94-4.13C25.56.057 22.456-.587 19.619.594c-.597.249-1.482.823-2.042 1.325l-.383.343-.401-.372a7.123 7.123 0 00-3.765-1.8c-.573-.087-1.462-.119-1.744-.064zm12.164 1.06c1.295.226 2.35.75 3.27 1.625.929.881 1.6 2.12 1.837 3.386.037.198.058.369.046.38-.012.013-.254-.022-.538-.076-.658-.126-1.79-.127-2.505-.002-1.36.239-2.623.877-3.717 1.88l-.37.34-.328-.234c-.414-.297-1.355-.775-1.863-.945a6.885 6.885 0 00-2.234-.348l-.792-.002.047-.477c.137-1.382.772-2.755 1.723-3.72 1.453-1.477 3.472-2.15 5.424-1.808zM8.687 7.5c.92.22 1.91.735 2.597 1.351.497.446.503.464.246.753-.638.718-1.221 1.841-1.484 2.862-.515 2-.082 4.6 1.218 7.315.418.873.426.8-.15 1.52-.433.545-1.012 1.013-1.557 1.262-.447.203-1.29.271-1.851.149-1.944-.426-4.308-2.746-5.721-5.616-.74-1.502-1.041-2.722-.975-3.952.162-3 2.354-5.35 5.39-5.78.575-.082 1.64-.019 2.287.136zm9.554.697c1.274.25 2.552.996 3.409 1.991.634.736 1.047 1.519 1.34 2.536.217.755.215 2.275-.005 3.31-.618 2.916-2.37 5.922-4.095 7.024-.744.475-1.154.606-1.893.606-.74 0-1.15-.131-1.893-.606-2.096-1.34-4.12-5.351-4.266-8.453-.062-1.34.239-2.533.909-3.6 1.396-2.222 3.916-3.312 6.494-2.808zm10.082.884c-.35.167-.603.445-.728.8-.135.382-.13.641.023 1.131.47 1.507 2.262 2.632 3.335 2.093.247-.124.564-.506.66-.795.136-.413.051-1.068-.206-1.589-.624-1.268-2.156-2.082-3.084-1.64zm-9.994.62c-1.104.578-1.034 2.023.157 3.217.635.635 1.204.914 1.876.92.426.003.506-.018.764-.199.158-.11.356-.32.44-.465.134-.23.15-.333.13-.827-.02-.502-.051-.618-.277-1.046-.305-.58-.973-1.24-1.527-1.512-.537-.263-1.16-.298-1.563-.087zm11.137.394c.654.317 1.213 1.117 1.214 1.739 0 .28-.019.324-.172.383-.337.128-1.01-.183-1.45-.67-.295-.327-.567-.881-.568-1.155-.002-.431.428-.562.976-.297zm-9.91.65c.673.387 1.157 1.088 1.16 1.683.001.326-.103.451-.377.45-.219-.002-.806-.318-1.111-.6-.337-.31-.703-.978-.703-1.282 0-.467.458-.579 1.03-.25zm-9.669 13.69c.31.36.575.691.59.736.029.086-.033.078-.576-.074-.373-.105-.726-.004-1.07.307-.29.261-.337.276-.337.107 0-.15.515-1.605.607-1.716.104-.126.183-.061.786.64zm15.081-.643c0 .01.136.403.302.874.179.508.277.88.241.915-.035.035-.161-.036-.31-.177a1.575 1.575 0 00-.514-.316c-.258-.077-.314-.07-.998.128-.227.066-.109-.139.456-.787.347-.4.62-.657.697-.657.07 0 .126.009.126.02zm-7.42 1.668c.395.67.521.97.41.97a2.04 2.04 0 01-.308-.182c-.218-.145-.352-.182-.653-.182-.301 0-.434.037-.653.182-.32.212-.344.217-.344.075 0-.184.884-1.62.997-1.62.064 0 .28.298.55.757z" fill="#353255"/><path d="M20.677 13.038c-.2.168-.517.25-.933.152-.416-.097-.88-.37-1.261-.825-.381-.454-.57-.959-.593-1.385-.024-.427.112-.724.313-.893.2-.168.517-.25.933-.152.416.098.88.37 1.261.825.381.454.569.959.593 1.386.024.426-.112.723-.313.892zm9.995-.293c-.195.163-.509.245-.93.142-.421-.102-.894-.383-1.283-.848-.39-.464-.584-.978-.611-1.41-.028-.434.107-.728.302-.892.195-.164.51-.246.93-.143.422.103.894.384 1.284.848.389.465.583.979.611 1.411.028.433-.108.728-.303.892z" stroke="#746CDE" stroke-width="1.5"/><path d="M7.831 21.837c-4.129-2.901-3.993-9.475-3.37-12.631a.098.098 0 00-.145-.104c-2.988 1.71-2.463 5.458-1.81 7.15.765 2.383 3.732 5.907 5.297 5.742.082-.008.096-.11.028-.157z" fill="#746CDE" fill-opacity=".5"/><path d="M4.068 8.668l.248.434-.248-.434c-1.666.953-2.345 2.481-2.52 3.957-.17 1.454.139 2.89.486 3.794.413 1.276 1.388 2.805 2.447 3.992.534.6 1.106 1.13 1.662 1.505.535.362 1.14.636 1.712.576a.576.576 0 00.512-.48.596.596 0 00-.248-.585c-1.911-1.342-2.869-3.56-3.262-5.893-.392-2.33-.208-4.7.095-6.232l-.49-.096.49.096a.598.598 0 00-.884-.634z" stroke="#746CDE" stroke-opacity=".5"/></svg>