<svg width="35" height="35" fill="none" xmlns="http://www.w3.org/2000/svg"><path d="M14.62 14.479l-1.313 10.983a.964.964 0 00.265.813l2.767 2.767a.94.94 0 001.332 0l2.767-2.767a.946.946 0 00.264-.813L19.39 14.48a.938.938 0 00-.935-.803h-2.909a.95.95 0 00-.925.803z" fill="#F6C243"/><path opacity=".5" d="M29.75 8.585h-3.721c1.681.019 2.984 1.483 2.786 3.154l-2.163 18.294a2.829 2.829 0 01-2.814 2.494l-17.52.047c.029 0 .057.01.085.01l21.175-.048a2.837 2.837 0 002.814-2.493l2.163-18.294a2.816 2.816 0 00-2.805-3.164z" fill="#FFD68D"/><path d="M16.291 10.266l-1.889 2.2a.915.915 0 00-.226.615v2.011c0 .52.425.945.944.945h3.778c.52 0 .944-.425.944-.945v-2.011a.965.965 0 00-.226-.614l-1.89-2.2a.954.954 0 00-1.435 0z" fill="#F6C243"/><path d="M16.282 9.7l-3.334 3.333a.94.94 0 01-1.331 0L4.939 6.366a.94.94 0 010-1.332L8.273 1.7a.94.94 0 011.332 0l6.677 6.668a.94.94 0 010 1.331z" stroke="#353255" stroke-miterlimit="10"/><path d="M16.282 9.7l-3.334 3.333a.94.94 0 01-1.331 0L4.939 6.366a.94.94 0 010-1.332L8.273 1.7a.94.94 0 011.332 0l6.677 6.668a.94.94 0 010 1.331zm1.454 0l3.334 3.333a.94.94 0 001.332 0l6.677-6.667a.94.94 0 000-1.332L25.745 1.7a.94.94 0 00-1.332 0l-6.677 6.668a.94.94 0 000 1.332z" stroke="#353255" stroke-miterlimit="10"/><path d="M6.725 8.632H4.25a2.833 2.833 0 00-2.814 3.164L3.599 30.09a2.83 2.83 0 002.814 2.493l21.174-.047a2.837 2.837 0 002.815-2.493l2.163-18.294a2.833 2.833 0 00-2.815-3.164h-2.474M10.87 2.833h12.278" stroke="#353255" stroke-miterlimit="10"/></svg>