<svg width="35" height="35" fill="none" xmlns="http://www.w3.org/2000/svg"><g clip-path="url(#clip0_1101_20397)"><path fill-rule="evenodd" clip-rule="evenodd" d="M3.76 8.055a.856.856 0 00-.368.249c-.141.18-.145.26-.145 3.106 0 3.227-.01 3.149.448 3.34.295.123.551.063.791-.188l.2-.208.021-2.451.022-2.452h17.113v17.402h-6.235l-.207.175c-.248.209-.315.483-.19.78.197.473-.082.449 5.144.449h4.726l.205-.206a.7.7 0 00.036-.966c-.165-.192-.189-.198-1.07-.232l-.9-.035-.019-7-.018-6.998h5.882l2.393 1.98 2.392 1.98v4.043c0 2.224-.02 4.47-.046 4.993l-.045.95-.468.033c-.537.039-.801.18-.907.483a.709.709 0 00.217.8c.198.167.249.175 1.146.175 1.022 0 1.249-.057 1.401-.351.135-.26.24-11.276.111-11.665-.072-.22-.5-.603-2.8-2.508-1.786-1.48-2.798-2.272-2.96-2.317-.143-.04-1.512-.07-3.28-.07h-3.035V9.981c0-1.46-.032-1.632-.344-1.844-.172-.117-.728-.125-9.585-.136-5.623-.007-9.492.015-9.626.054zm21.335 6.854c-.302.244-.306.295-.306 3.623v3.197l.204.229.205.229 3.179.02c2.247.014 3.235-.004 3.37-.06.424-.175.442-.267.468-2.346.012-1.042.002-2.064-.024-2.27-.054-.439-.073-.46-1.637-1.852l-1.006-.895-2.151.002c-1.933.001-2.167.014-2.302.123zm4.745 2.093l.913.815v2.932h-4.491v-4.561h2.666l.912.814zM3.695 24.22c-.433.185-.448.253-.448 2.024v1.603l.205.206.205.205h1.336c.849 0 1.399-.03 1.51-.08.23-.105.416-.498.358-.76a.942.942 0 00-.225-.383c-.174-.175-.21-.18-1.04-.18h-.86l-.026-1.122-.024-1.122-.211-.203c-.261-.253-.496-.31-.78-.188zm6.448 1.834a3.7 3.7 0 00-.737.316c-1.898 1.107-2.241 3.599-.708 5.14.656.658 1.386.958 2.338.958 2.512 0 3.995-2.582 2.814-4.898-.201-.394-.843-1.025-1.254-1.233-.773-.392-1.671-.495-2.453-.283zm17.79.023a3.322 3.322 0 00-2.001 1.735c-.881 1.844.073 3.938 2.078 4.558.414.128 1.353.128 1.768 0 1.059-.328 1.9-1.144 2.21-2.148.55-1.785-.49-3.713-2.253-4.172-.548-.143-1.307-.131-1.803.027zm-16.236 1.437c.355.148.818.6.973.949.183.413.183 1.07 0 1.485a1.795 1.795 0 01-2.371.913c-.456-.202-.716-.451-.92-.884-.44-.931-.007-2.031.966-2.454.301-.131 1.048-.136 1.352-.009zm18.008.095c1.36.69 1.275 2.705-.14 3.297-.377.158-1.054.136-1.432-.047-.446-.216-.856-.686-.989-1.134-.137-.461-.137-.579 0-1.038.313-1.055 1.566-1.583 2.561-1.078z" fill="#353255"/><rect x="2.637" y="15.085" width="7.911" height="1.802" rx=".901" fill="#56CCF2"/><rect x="1.318" y="17.788" width="7.911" height="1.802" rx=".901" fill="#56CCF2"/><rect y="20.491" width="8.571" height="1.802" rx=".901" fill="#56CCF2"/><path d="M31 14l4 2.8V28h-4V14z" fill="#56CCF2" fill-opacity=".3"/></g><defs><clipPath id="clip0_1101_20397"><path fill="#fff" d="M0 0h35v35H0z"/></clipPath></defs></svg>