<svg width="35" height="35" fill="none" xmlns="http://www.w3.org/2000/svg"><path opacity=".5" d="M30.082 14.316H25.73c1.645 0 2.882 1.539 2.56 3.194l-2.465 12.974c-.235 1.261-1.314 2.174-2.56 2.174h4.354c1.254 0 2.325-.913 2.56-2.174l2.464-12.974c.322-1.655-.914-3.194-2.56-3.194z" fill="#FF5454"/><path d="M8.933 8.715L7.436 32.658h20.182c1.254 0 2.325-.913 2.56-2.175l2.464-12.973c.313-1.655-.923-3.194-2.56-3.194H19.32c-.835 0-1.55-.609-1.706-1.459l-.862-4.643c-.357-1.915-1.985-3.293-3.875-3.293-2.08 0-3.805 1.664-3.944 3.794zm-1.497 5.601h-2.29c-1.34 0-2.473 1.047-2.603 2.425L1.315 29.714c-.148 1.575 1.062 2.944 2.603 2.944h3.518" stroke="#353255" stroke-miterlimit="10"/><path d="M27.35 0c-.784 3.212-2.516 5.18-5.442 5.592 2.856.966 4.893 2.64 5.442 5.592.644-2.55 2.481-4.393 5.442-5.592-2.96-.295-4.798-2.13-5.442-5.592z" fill="#FF3E3E"/></svg>