<svg width="20" height="20" fill="none" xmlns="http://www.w3.org/2000/svg"><path fill-rule="evenodd" clip-rule="evenodd" d="M9.253.028C7.745.175 6.607.5 5.373 1.14A9.938 9.938 0 001.03 5.572C.669 6.304.498 6.752.31 7.47.07 8.376.001 8.926 0 9.927c-.001.499.02 1.04.048 1.25.213 1.6.714 2.98 1.554 4.271l.28.43-.622 1.836a62.914 62.914 0 00-.61 1.847c.007.006.862-.26 1.9-.592 1.04-.332 1.903-.604 1.92-.604.017 0 .177.09.356.202.179.111.554.311.833.445a9.973 9.973 0 007.999.287 10.074 10.074 0 005.984-6.76c.246-.935.308-1.448.308-2.534 0-1.086-.062-1.599-.308-2.534a10.058 10.058 0 00-7.44-7.215A9.433 9.433 0 0010.19.027c-.43-.007-.85-.007-.937 0zM6.87 4.663a.607.607 0 01.2.212c.117.208 1.067 2.496 1.095 2.634.035.177-.138.478-.526.914-.405.456-.493.602-.456.766.065.298.968 1.496 1.525 2.023.864.818 2.17 1.594 2.75 1.636.3.022.41-.063.867-.672a9.31 9.31 0 01.492-.617c.15-.15.374-.182.625-.089.321.12 2.288 1.078 2.427 1.182l.132.1-.022.414c-.056 1.062-.429 1.614-1.415 2.094-.937.456-1.67.443-3.106-.053-1.927-.666-2.95-1.302-4.336-2.697a14.665 14.665 0 01-1.75-2.095c-.928-1.33-1.285-2.356-1.179-3.399.085-.835.377-1.452.967-2.042.286-.285.659-.403 1.22-.384.24.008.414.034.49.073z" fill="#219653"/></svg>